<svg xmlns="http://www.w3.org/2000/svg" xmlns:xlink="http://www.w3.org/1999/xlink" viewBox="0 0 469.25 403.25"><defs><style>.cls-1{fill:none;}.cls-2{fill:#75d1ea;}.cls-3{fill:#6ab0d3;}.cls-4{fill:#4a88c6;}.cls-5{clip-path:url(#clip-path);}.cls-6{fill:#1f848c;}.cls-7{fill:#19707c;}.cls-8{fill:#313a4c;}.cls-9{fill:#f4cfa2;}.cls-10{fill:#dba182;}.cls-11{fill:#fff;}.cls-12{fill:#44261d;}.cls-13{fill:#354156;}.cls-14{fill:#d3d3d3;}.cls-15{fill:#727275;}.cls-16{fill:#a2a2a3;}.cls-17{fill:#1b7577;}.cls-18{fill:#269b92;}.cls-19{fill:#2fc1ac;}.cls-20{fill:#27ae60;}.cls-21{fill:#39475b;}.cls-22{fill:#212a38;}</style><clipPath id="clip-path" transform="translate(-13.5 -40.75)"><rect class="cls-1" width="500" height="500"/></clipPath></defs><g id="Objects"><path class="cls-2" d="M330,54.67C294.33,42.26,267,41,237.67,65s-42,22.67-80.67,29.33-58,40-52,80.67S74.33,229.67,62.33,284.33s18,109.34,18,109.34H423.67S438.05,367.93,445,325s-17.33-85.33-43.67-121.67S390,155,387,120s-41.67-60-57-65.33" transform="translate(-13.5 -40.75)"/><path class="cls-3" d="M436.73,264.39a.5.5,0,0,1-.21-.26c-10.54-29.67-60.18-21.54-68,6a.49.49,0,0,1-.73.3c-3.84-2.62-8.62-4.69-13.29-3.09-4.12,1.41-7.22,4.77-9.55,8.32-4.89,7.46-7.63,16.08-10.43,24.47a.5.5,0,0,1-.91.12c-8.32-15.9-30.14,5.68-33.09,15.88a.5.5,0,0,1-.91.12C293.29,304,276.18,301.79,264,303.86,251.19,306,237.61,314.2,239.5,329c.06.44-.58.65-.85.35-6.81-7.52-15.07-15.88-25.46-17.88-11.5-2.22-22.11,4-30.84,10.88a.5.5,0,0,1-.85-.35c-.05-8.24-1.83-17.62-7.27-24.12-6.38-7.62-15.51-7.57-24-3.45a.51.51,0,0,1-.75-.43c.27-7.43-2.41-15.69-10.61-17.32-7.64-1.51-15.21,2.45-20.54,7.67a.5.5,0,0,1-.85-.35c0-.45-.06-.91-.1-1.36-.71-8.18-3-17.92-10.35-22.73-5.78-3.76-13-3.56-19.31-1.5a52.44,52.44,0,0,0-22.63,15.3c-1,3.37-2,6.9-2.78,10.62-12,54.67,18,109.34,18,109.34H423.67S438.05,367.93,445,325C448.32,304.47,444.49,284.07,436.73,264.39Z" transform="translate(-13.5 -40.75)"/><path class="cls-4" d="M482.75,370A14.26,14.26,0,0,0,470,355.82,18,18,0,0,0,454,329.5a18.13,18.13,0,0,0-5.13.75,20.72,20.72,0,0,0-30.15-13.16,16,16,0,0,0-30.79-2.42c-3.11-9-9.85-15.17-17.68-15.17-10.68,0-19.35,11.56-19.49,25.88-8.59,1.06-15.26,8.88-15.26,18.37a19.61,19.61,0,0,0,1.31,7.07,17.24,17.24,0,0,0,5.94,33.43h128v-.2a14.23,14.23,0,0,0,12-14.05" transform="translate(-13.5 -40.75)"/><path class="cls-4" d="M219.17,363.82a12.49,12.49,0,0,0-16.7-.87,9.2,9.2,0,0,0-5.68-4.61,15.46,15.46,0,0,0-15-19.51A15.38,15.38,0,0,0,171.29,343a8.91,8.91,0,0,0-7.54-4.17,9,9,0,0,0-1.89.21,14.64,14.64,0,0,0-13.61-11c.05-.61.08-1.23.08-1.86,0-10.59-7.16-19.17-16-19.17-8.26,0-15.05,7.5-15.9,17.13a13.21,13.21,0,0,0-7.6-2.3,14.28,14.28,0,0,0-3,.32c-1-10.31-8.56-18.32-17.7-18.32-9.54,0-17.31,8.72-17.79,19.68A14,14,0,0,0,47.5,334.33a14.28,14.28,0,0,0,.73,4.46,15.16,15.16,0,0,0-5.73-1.12,15.31,15.31,0,0,0-14.71,19.62c-.27,0-.52,0-.79,0a13.5,13.5,0,0,0,0,27H205.65a12.5,12.5,0,0,0,13.52-20.43" transform="translate(-13.5 -40.75)"/><path class="cls-2" d="M189.5,63.25A10.25,10.25,0,1,1,199.75,73.5,10.25,10.25,0,0,1,189.5,63.25" transform="translate(-13.5 -40.75)"/><path class="cls-2" d="M150.25,48.5A7.75,7.75,0,1,1,158,56.25a7.75,7.75,0,0,1-7.75-7.75" transform="translate(-13.5 -40.75)"/><path class="cls-2" d="M141,82.5a4.5,4.5,0,1,1,4.5,4.5,4.51,4.51,0,0,1-4.5-4.5" transform="translate(-13.5 -40.75)"/><path class="cls-2" d="M49.75,157.25a4.5,4.5,0,1,1,4.5,4.5,4.51,4.51,0,0,1-4.5-4.5" transform="translate(-13.5 -40.75)"/><path class="cls-2" d="M63.5,197.25A12.75,12.75,0,1,1,76.25,210,12.75,12.75,0,0,1,63.5,197.25" transform="translate(-13.5 -40.75)"/><path class="cls-2" d="M41.5,234a7.25,7.25,0,1,1,7.25,7.25A7.26,7.26,0,0,1,41.5,234" transform="translate(-13.5 -40.75)"/><path class="cls-2" d="M405.5,178a13,13,0,1,1,13,13,13,13,0,0,1-13-13" transform="translate(-13.5 -40.75)"/><path class="cls-2" d="M442,149.25a6.75,6.75,0,1,1,6.75,6.75,6.75,6.75,0,0,1-6.75-6.75" transform="translate(-13.5 -40.75)"/><path class="cls-2" d="M402,109.25a4.5,4.5,0,1,1,4.5,4.5,4.5,4.5,0,0,1-4.5-4.5" transform="translate(-13.5 -40.75)"/><path class="cls-2" d="M430.25,216.75a5.5,5.5,0,1,1,5.5,5.5,5.5,5.5,0,0,1-5.5-5.5" transform="translate(-13.5 -40.75)"/><g class="cls-5"><polygon class="cls-6" points="415.5 403.25 57.5 403.25 87.5 333.25 385.5 333.25 415.5 403.25"/><ellipse class="cls-7" cx="235.14" cy="371.91" rx="133.48" ry="22.84"/><path class="cls-7" d="M404.76,423.31c0,4.36-16.23,7.89-36.25,7.89s-36.25-3.53-36.25-7.89,16.23-7.9,36.25-7.9S404.76,418.94,404.76,423.31Z" transform="translate(-13.5 -40.75)"/></g><path class="cls-8" d="M249.38,349.75s35.12.37,43.87-1.5S316,337.12,335.12,337s25.76,21.88,14.76,34S273.5,404.5,251,405.25s-79.25-18-99-34.25-9.25-37.25,10.75-34.75,36,9.25,46.15,12,40.48,1.5,40.48,1.5" transform="translate(-13.5 -40.75)"/><path class="cls-9" d="M339.62,320.38c-1.37-9-21.12-39.88-21.12-39.88L298,288.25l10.88,18.87,2.39,11.93c1.86,9.24,11.09,15.33,20.18,12.85,6.12-1.66,9-6.28,8.17-11.52" transform="translate(-13.5 -40.75)"/><path class="cls-10" d="M326.19,293.05c-4.17-7-7.69-12.55-7.69-12.55L298,288.25l8,13.85A50.59,50.59,0,0,0,326.19,293.05Z" transform="translate(-13.5 -40.75)"/><path class="cls-9" d="M162.52,320.38c1.38-9,21.13-39.88,21.13-39.88l20.5,7.75-10.88,18.87-2.4,11.93c-1.86,9.24-11.09,15.33-20.18,12.85-6.12-1.66-9-6.28-8.17-11.52" transform="translate(-13.5 -40.75)"/><path class="cls-10" d="M188.63,297.38A34,34,0,0,0,198,299l6.19-10.74-20.5-7.75s-2.77,4.32-6.29,10.19C180.1,294,184.76,296.13,188.63,297.38Z" transform="translate(-13.5 -40.75)"/><path class="cls-6" d="M292.5,239.5c-4.67-3.56-26.92-6.12-39.36-6.65v-.1l-2.07,0-2.07,0v.1c-12.43.53-34.69,3.09-39.35,6.65C204.4,243.5,181,283,181,283.83s18.5,12.67,19.25,12.09,11.25-18.59,11.25-18.59h79.19s10.5,18,11.25,18.59,19.25-11.25,19.25-12.09S297.75,243.5,292.5,239.5" transform="translate(-13.5 -40.75)"/><path class="cls-6" d="M292.75,254.25l-41.68.74-41.67-.74s-.5,92.25-.5,94,13.6,11.68,42.17,11.68c29.26,0,42.18-9.93,42.18-11.68s-.5-94-.5-94" transform="translate(-13.5 -40.75)"/><path class="cls-11" d="M321.17,283.83a57.69,57.69,0,0,0-2.89-5.25c-6.13,4.05-16.26,9.81-19.87,11.84a64.16,64.16,0,0,0,3.51,5.5c.75.58,19.25-11.25,19.25-12.09" transform="translate(-13.5 -40.75)"/><path class="cls-9" d="M339.62,320.38v0a7.1,7.1,0,0,0-5.06-5.63l-25.68-7.59S271.5,296.88,270,295.5s-10.5-26.62-11.25-30.5-6-7-6.63-1.5-.87,27.12.38,39.88,12.38,8.12,14.25,8.74,28.63,11.63,46.75,18,27.5-.74,26.12-9.74" transform="translate(-13.5 -40.75)"/><path class="cls-11" d="M181,283.83a54.84,54.84,0,0,1,2.89-5.25c6.13,4.05,16.26,9.81,19.86,11.84-1.78,2.95-3.24,5.29-3.5,5.5-.75.58-19.25-11.25-19.25-12.09" transform="translate(-13.5 -40.75)"/><path class="cls-9" d="M162.52,320.38v0a7.12,7.12,0,0,1,5.07-5.63l25.68-7.59s37.38-10.24,38.88-11.62,10.5-26.62,11.25-30.5,6-7,6.62-1.5.87,27.12-.37,39.88-12.38,8.12-14.25,8.74-28.63,11.63-46.75,18-27.5-.74-26.13-9.74" transform="translate(-13.5 -40.75)"/><path class="cls-11" d="M253.14,232.75l-2.07,0-2.07,0v.1c-4.45.19-10.16.64-15.87,1.3A14.13,14.13,0,0,0,233,236c0,9,8.73,16.25,19.5,16.25S272,245,272,236a14.71,14.71,0,0,0-.09-1.49c-6.64-.86-13.56-1.44-18.77-1.66Z" transform="translate(-13.5 -40.75)"/><path class="cls-9" d="M253.14,232.75l-2.07,0-2.07,0v.1c-3.17.13-7,.4-11,.79a9.45,9.45,0,0,0-.16,1.61c0,6.42,6.55,11.63,14.63,11.63s14.62-5.21,14.62-11.63a8.2,8.2,0,0,0-.1-1.32c-5-.54-9.94-.91-13.88-1.08Z" transform="translate(-13.5 -40.75)"/><polyline class="cls-9" points="229 194.25 229 182.75 247.25 182.75 247.25 194"/><path class="cls-10" d="M260.75,231.37V223.5H242.5v8C247.63,234.7,255.88,234.92,260.75,231.37Z" transform="translate(-13.5 -40.75)"/><path class="cls-8" d="M269.6,198.83H233.49c-8.54,0-15.39,2.34-15.15-4.53,0,0-3.16-30-.88-38.27,2.8-10.13,15.62-20.65,34.08-20.65S282.82,145.9,285.62,156c2.28,8.26-.88,38.27-.88,38.27.24,6.87-6.61,4.53-15.14,4.53" transform="translate(-13.5 -40.75)"/><path class="cls-10" d="M225.33,185.62s-2.38-5.74-8.38-3.37-4.75,23.87,8.25,19.13Z" transform="translate(-13.5 -40.75)"/><path class="cls-9" d="M235.41,158.88h32.26a12.19,12.19,0,0,1,12.19,12.53L279,205.68c-.41,14.84-12.56,24.65-27.41,24.65s-27-9.81-27.41-24.65l-.9-34.27a12.17,12.17,0,0,1,12.18-12.53" transform="translate(-13.5 -40.75)"/><path class="cls-10" d="M277.5,185.62s2.38-5.74,8.38-3.37,4.74,23.87-8.26,19.13Z" transform="translate(-13.5 -40.75)"/><path class="cls-9" d="M235.41,158.88h32.26a12.19,12.19,0,0,1,12.19,12.53L279,205.68c-.41,14.84-12.56,24.65-27.41,24.65s-27-9.81-27.41-24.65l-.9-34.27a12.17,12.17,0,0,1,12.18-12.53" transform="translate(-13.5 -40.75)"/><path class="cls-10" d="M240.6,168.7c3.92.58,7.89.5,11.84.75a47.77,47.77,0,0,0,11-.11c5.1-.89,9.57-3.84,14.66-4.53a12.17,12.17,0,0,0-10.45-5.93H235.41a12.17,12.17,0,0,0-11.56,8.36C229.07,166,236.65,168.11,240.6,168.7Z" transform="translate(-13.5 -40.75)"/><path class="cls-8" d="M223.92,154.88c0-5.73,12.36-10.38,27.62-10.38s27.63,4.65,27.63,10.38-12.37,10.37-27.63,10.37-27.62-4.65-27.62-10.37" transform="translate(-13.5 -40.75)"/><path class="cls-12" d="M221.69,187a4.48,4.48,0,0,0-1.28-1.45,2.45,2.45,0,0,0-1.7-.47,1.76,1.76,0,0,0-1.2.73c-.43.66-.39,1.13-.35,1.14s.23-.41.67-.86a1.4,1.4,0,0,1,.93-.4,1.85,1.85,0,0,1,1.18.49,3.7,3.7,0,0,1,.94,1.24,7.56,7.56,0,0,1,.5,1.65,2.79,2.79,0,0,1,0,1.5c-.13.35-.59.65-1,1.06a3.16,3.16,0,0,0-1,1.41,1.77,1.77,0,0,0,.26,1.45,2.91,2.91,0,0,0,1.17,1c.58.28.71.16.78,0s.07-.27-.34-.66a4.42,4.42,0,0,1-.74-.9c-.24-.44-.2-.78.6-1.54l.62-.55a2.56,2.56,0,0,0,.64-.9,3.56,3.56,0,0,0,0-2.12,7.43,7.43,0,0,0-.68-1.86" transform="translate(-13.5 -40.75)"/><path class="cls-12" d="M285.32,185.78a1.76,1.76,0,0,0-1.2-.73,2.44,2.44,0,0,0-1.7.47,4.48,4.48,0,0,0-1.28,1.45,7.43,7.43,0,0,0-.68,1.86,3.56,3.56,0,0,0,0,2.12,2.56,2.56,0,0,0,.64.9l.62.55c.8.76.84,1.1.6,1.54a4.42,4.42,0,0,1-.74.9c-.41.39-.41.52-.34.66s.2.25.78,0a2.91,2.91,0,0,0,1.17-1,1.77,1.77,0,0,0,.26-1.45,3.16,3.16,0,0,0-1-1.41c-.43-.41-.89-.71-1-1.06a2.79,2.79,0,0,1,0-1.5,7.56,7.56,0,0,1,.5-1.65,3.81,3.81,0,0,1,.93-1.24,1.89,1.89,0,0,1,1.19-.49,1.4,1.4,0,0,1,.93.4c.44.45.58.89.67.86s.08-.48-.35-1.14" transform="translate(-13.5 -40.75)"/><path class="cls-12" d="M263.6,177.78c-3,0-3.18.25-3.18.55s.16.55,3.18.55,7.73-.24,7.73-.55-4.72-.55-7.73-.55" transform="translate(-13.5 -40.75)"/><path class="cls-12" d="M269,189.71a5.72,5.72,0,0,1-5.9.51,4.56,4.56,0,0,1-1.55-1.44c-.3-.45-.46-.8-.59-1-.24-.48-.36-.52-.51-.5s-.3.11-.23.72a3.81,3.81,0,0,0,.47,1.34,4.73,4.73,0,0,0,1.89,1.88,6.31,6.31,0,0,0,3.6.61,5.51,5.51,0,0,0,3.34-1.51,5.85,5.85,0,0,0,1.48-2.36c.21-.66.23-1.08.15-1.1a11.29,11.29,0,0,1-2.15,2.88" transform="translate(-13.5 -40.75)"/><path class="cls-12" d="M243.12,178.33c0-.3-.17-.55-3.33-.55s-8.12.25-8.12.55,5,.55,8.12.55,3.33-.24,3.33-.55" transform="translate(-13.5 -40.75)"/><path class="cls-12" d="M243.12,187.25c-.15,0-.27,0-.51.5-.13.23-.29.58-.59,1a4.56,4.56,0,0,1-1.55,1.44,5.72,5.72,0,0,1-5.9-.51,11.29,11.29,0,0,1-2.15-2.88c-.08,0-.06.44.15,1.1a5.89,5.89,0,0,0,1.49,2.36,5.45,5.45,0,0,0,3.33,1.51,6.31,6.31,0,0,0,3.6-.61,4.73,4.73,0,0,0,1.89-1.88,3.75,3.75,0,0,0,.47-1.34c.08-.62-.08-.7-.23-.72" transform="translate(-13.5 -40.75)"/><path class="cls-12" d="M246.64,203.06l.54.39c.7.48,1.35.85,1.91,1.16,1.11.6,1.84.88,1.91.77s-.53-.63-1.53-1.37l-1.74-1.31-.47-.38-.21-.19v0s0,0,0,0l.13-.27c.1-.18.23-.38.35-.58,2-3.19,3.7-5.81,3.46-6s-2.25,2.19-4.32,5.46c-.13.21-.25.41-.37.63a2.85,2.85,0,0,0-.17.35,1.74,1.74,0,0,0-.12.61,1.35,1.35,0,0,0,.34.52c.1.1.19.16.28.24" transform="translate(-13.5 -40.75)"/><path class="cls-12" d="M257.5,213.32a3.07,3.07,0,0,1-1.2.91c-1.19.46-3.19.37-5.34.39-1.1,0-2.1,0-3-.06a9.29,9.29,0,0,1-2.33-.47,3.93,3.93,0,0,1-1.33-.78c-.26-.26-.36-.45-.42-.43s-.11.27.11.66a3.19,3.19,0,0,0,1.35,1.2,7.82,7.82,0,0,0,2.51.74,22.28,22.28,0,0,0,3.11.15c2.16,0,4.21,0,5.65-.76a2.71,2.71,0,0,0,1.22-1.35c.17-.39.18-.62.13-.64s-.21.14-.46.44" transform="translate(-13.5 -40.75)"/><path class="cls-10" d="M252.07,395.58s-6.3,3.82-8.41,4-27.73,2-38.24,4.14-11.37,9.28-5.84,19.42c4.5,8.25,18.12,6,33.34,1.08s23.73-9.55,23.73-9.55Z" transform="translate(-13.5 -40.75)"/><path class="cls-13" d="M330.12,345.5s-77.5,44.38-88.62,50.38c-1.25,1.12,8.88,19.62,11.62,18.62s85.63-29.12,97.5-44.12-.09-28.32-4.62-30.47c-3.21-1.53-5.38.47-15.88,5.59" transform="translate(-13.5 -40.75)"/><path class="cls-9" d="M250.25,394s6,3.42,8.08,3.83,29.5,4.34,39.75,7.5,7.09,14.34-.25,21.84-15.58,4.33-30.25-2a153.22,153.22,0,0,1-23.75-12.59Z" transform="translate(-13.5 -40.75)"/><path class="cls-10" d="M264.83,398.87c-3.47-.55-5.93-.92-6.5-1-2.08-.41-8.08-3.83-8.08-3.83l-6.42,18.58s3.19,2.19,8.79,5.27A35.36,35.36,0,0,0,264.83,398.87Z" transform="translate(-13.5 -40.75)"/><path class="cls-13" d="M176.75,348c16.66,9.62,79.13,45.62,80.63,47.25s-6.38,19.25-10.13,20.5-64.5-24.37-88-39.25-18.63-27.25-15.13-33,14-6.25,32.63,4.5" transform="translate(-13.5 -40.75)"/><path class="cls-14" d="M354,421.34c0-3.42,9.49-6.26,21.25-6.26s21.31,2.84,21.31,6.26-9.53,6.21-21.28,6.21S354,424.77,354,421.34" transform="translate(-13.5 -40.75)"/><path class="cls-15" d="M359.44,421.41c0-1.93,7-3.47,15.66-3.47s15.71,1.54,15.71,3.47-7,3.51-15.69,3.51-15.68-1.57-15.68-3.51" transform="translate(-13.5 -40.75)"/><path class="cls-14" d="M393.28,397.93c-1.73-1.08-4.14-.95-6.45.33s-4.56,3.82-4.58,6.7c0,.44-.25,4.57-.33,6.39s1.86,3,4.69,3.09h.44c4,0,8.53-2.5,8.87-9.63.2-4.22-1.33-6.08-2.64-6.89m-.36,6.75c-.16,3.27-1.41,5.46-3.62,6.34a5.93,5.93,0,0,1-4.36,0c.09-2.08.31-6,.31-6V405c0-1.41,1.28-3.14,3-4.12,1.32-.73,2.63-.89,3.41-.4s1.32,2,1.22,4.2" transform="translate(-13.5 -40.75)"/><path class="cls-11" d="M361.94,388.58l-.22,3.65a65.55,65.55,0,0,0,.75,15.39L364.39,419c.46,2.74,2.86,4.25,5.68,4.25h10.11c2.82,0,5.22-1.51,5.68-4.25l1.92-11.38a65.55,65.55,0,0,0,.75-15.39l-.22-3.65c-.14-2.05-11.87-1.3-13.95-1.3h1.53c-2.08,0-13.81-.75-13.95,1.3" transform="translate(-13.5 -40.75)"/><path class="cls-14" d="M375.12,395.47c5.55,0,10.46-.83,13.48-2.11,0-.37,0-.75-.07-1.13l-.22-3.65c-.13-1.87-9.88-1.41-13.19-1.32-3.3-.09-13.05-.55-13.18,1.32l-.22,3.65c0,.38-.05.76-.07,1.13,3,1.28,7.93,2.11,13.47,2.11" transform="translate(-13.5 -40.75)"/><path class="cls-16" d="M361.94,388.52c0-1.1,5.88-2.11,13.16-2.11s13.21,1,13.21,2.11-5.9,2-13.19,2-13.18-.89-13.18-2" transform="translate(-13.5 -40.75)"/><path class="cls-15" d="M375.1,388c-6.19,0-11.35.45-12.77,1,1.42.87,6.6,1.51,12.79,1.51s11.38-.64,12.8-1.51C386.49,388.45,381.3,388,375.1,388Z" transform="translate(-13.5 -40.75)"/><path class="cls-11" d="M374.88,362.94c-.08,0,0,.51.19,1.3a9.75,9.75,0,0,1,.16,3.11,9.58,9.58,0,0,1-1.68,3.62,12.87,12.87,0,0,0-1,2,10.09,10.09,0,0,0-.46,2.06,6.82,6.82,0,0,0,.9,4.65c.43.61.63.57.74.48s.17-.21-.05-.83a9.13,9.13,0,0,1-.5-4.18,10.72,10.72,0,0,1,.39-1.83,12.15,12.15,0,0,1,.84-1.85,9.57,9.57,0,0,0,1.57-4,8.36,8.36,0,0,0-.52-3.32c-.31-.77-.54-1.21-.6-1.18" transform="translate(-13.5 -40.75)"/><path class="cls-11" d="M381.81,367.69c-.13-.73-.26-1.17-.33-1.16s.12,1.85-.46,4a9.82,9.82,0,0,1-1.83,3.11,12.59,12.59,0,0,0-1,1.73,10.36,10.36,0,0,0-.63,1.79,7,7,0,0,0,0,4.27c.27.62.46.63.59.56s.22-.15.17-.74a10.86,10.86,0,0,1,.27-3.82,10.15,10.15,0,0,1,1.45-3.21,9.51,9.51,0,0,0,1.74-3.5,8.85,8.85,0,0,0,0-3" transform="translate(-13.5 -40.75)"/><path class="cls-17" d="M466.67,284.25c2.08-1.92,2.08-10.67,1.25-10.67s-5.92.67-5.84-.16,4.92-2.17,5.25-4.84a84,84,0,0,0,.17-8.75s-7,1.09-16.44,6.55a1.9,1.9,0,0,0-.95,1.79c.16,2,.28,5.72-.94,6.33s-2.14-2.41-2.4-3.66a.34.34,0,0,0-.53-.21c-1.53,1.08-6.66,4.78-6.66,5.7,0,1.09,2.84,11.25,1.25,12.17s-3.58-7.33-4.33-7a18.83,18.83,0,0,0-8.92,8c-3,5.5-2.33,14.67,9.25,16.33,0,0,1.34,8.5,11.42,7.09s13.25-13.42,12.42-13.5-12,.25-11.59-1.67,11.75-1,12.75-1.67,3.84-7.25,2.59-6.91-8.67.66-8.67-.5,8.83-2.5,10.92-4.42m-9.31-18.08c.33-.8,1.16-1.44,1.57-1.27s.23,1.09-.11,1.88-.92,1.3-1.33,1.13-.46-1-.13-1.74M432.8,300c-.55.1-1.21-1-1.47-2.49s.1-3.15.65-3.25,1.06,1.43,1.33,2.9,0,2.74-.51,2.84m12.06,6.76c-1.65-.12-3-.65-2.93-1.19s1.42-.87,3.08-.75,3.39.48,3.36,1-1.85,1-3.51.92m7.33-19.1c-1.37.37-2.6.25-2.74-.27s.87-1.23,2.24-1.6,2.9-.53,3,0-1.16,1.52-2.54,1.89" transform="translate(-13.5 -40.75)"/><path class="cls-8" d="M464.29,263.92c-.23.18-.57.44-1,.82-.85.73-2,1.86-3.44,3.31-1.73,1.79-3.81,4.11-6,6.84,0-.27,0-.58,0-1a31.48,31.48,0,0,1,.19-3.6,8,8,0,0,0,.18-2,4.5,4.5,0,0,0-.75,1.91,15.59,15.59,0,0,0-.44,3.7,9.59,9.59,0,0,0,.16,1.81c-1.18,1.48-2.4,3.07-3.63,4.77-1.64,2.3-3.29,4.79-4.87,7.42,0-.25,0-.53,0-.85-.05-1.37-.11-3.13-.13-4.55a7.59,7.59,0,0,0-.19-2.52,5.92,5.92,0,0,0-.59,2.48,31.41,31.41,0,0,0-.19,4.63,12.13,12.13,0,0,0,.24,2.3,84.11,84.11,0,0,0-4.65,9.19c-.14.32-.27.66-.4,1-.05-.32-.1-.68-.18-1.08a25.69,25.69,0,0,0-2.06-5.69,9.79,9.79,0,0,0-1.73-2.81c-.15.07.38,1.38,1,3.12a42.13,42.13,0,0,1,1.69,5.61,23.18,23.18,0,0,1,.42,2.94,97.44,97.44,0,0,0-4.59,16.66,112.2,112.2,0,0,0-1.77,14.57c-.19,3.64-.17,6.16-.11,7.9.14,3.46.37,3.79.51,3.78s.21-.35.27-3.79c0-1.72.09-4.22.35-7.83a123.75,123.75,0,0,1,1.83-14.42,102.75,102.75,0,0,1,4.34-16.14,12.63,12.63,0,0,0,3.71.34,42.05,42.05,0,0,0,6.29-.45,9,9,0,0,0,3.35-.91,17.85,17.85,0,0,0-3.43.14c-1.93.1-4.34.13-6.21.12a25,25,0,0,0-3.46.08c.35-.91.71-1.82,1.1-2.72.89-2.14,1.89-4.23,2.95-6.27a11.92,11.92,0,0,0,3.44.23,38.6,38.6,0,0,0,5.91-.61,8.82,8.82,0,0,0,3.14-.91,13.7,13.7,0,0,0-3.24.14c-1.81.15-4.08.24-5.84.28a29.53,29.53,0,0,0-3,.13c1.63-3.07,3.42-6,5.21-8.73a14.6,14.6,0,0,0,3.46-.1,32.08,32.08,0,0,0,6.25-1.37,9.09,9.09,0,0,0,3.18-1.48,19.78,19.78,0,0,0-3.39.73,56.14,56.14,0,0,1-6.16,1c-1.3.14-2.16.22-2.75.3.32-.48.65-1,1-1.42,1.16-1.68,2.32-3.24,3.45-4.72.07,0,.12-.07.15-.19,2.37-3.08,4.6-5.69,6.41-7.69,1.36-1.49,2.48-2.67,3.28-3.45a17.14,17.14,0,0,0,1.21-1.23s-.14.07-.38.25" transform="translate(-13.5 -40.75)"/><path class="cls-18" d="M437,288.67c-.83-11.75-10.08-16.59-10.42-15.84s-3.08,8.5-4.75,7.25,1.84-11.66,1.84-13.41-7.34-8.59-7.59-7.5-2.58,7-3.41,4,1.08-8-.59-9-15.41-7.5-19.41-9.17c0,0,.33,5.5-.59,8.33s-.08,3.42,2.67,5,4.25,3.5,2.17,3.5-5-1.83-5.84-.58-1.16,10.5.17,11.92,13,4.41,13.08,5.91-9.08.5-9.91.17.5,7.75,3.08,8.58,11.67-.33,13.25,1.59-1.08,2.08-5.5,1.91-7.67-.41-7.5.59,1.58,13.08,11.42,15.83,14.91-3.67,15.91-7.17c0,0,12.75-.16,11.92-11.91m-32.84-33.3c-.54.26-1.33-.28-1.78-1.2s-.28-2.21.26-2.47,1.24.61,1.68,1.53.37,1.88-.16,2.14m7.21,23c-.28.62-1.64.59-3-.05s-2.75-1.58-2.47-2.19,2.09-.66,3.48,0,2.3,1.66,2,2.26m4.79,22.56c-1.77,0-3.63-.95-3.62-1.68s1.91-1,3.68-1,3.2.67,3.18,1.4-1.46,1.29-3.24,1.25m16.71-10.36c-.54,1.58-1.63,2.63-2.44,2.35s-1-1.77-.48-3.35,1.46-3.12,2.26-2.84,1.2,2.27.66,3.84" transform="translate(-13.5 -40.75)"/><path class="cls-8" d="M430.14,332a133.55,133.55,0,0,0-1.48-17.06c-.24-1.82-.64-3.67-1-5.58s-.78-3.85-1.31-5.81c-.26-1-.51-2-.76-3s-.61-2-.92-3l-.46-1.49-.37-1a18,18,0,0,0,1.57-3.41,36,36,0,0,0,1.76-6.85,11.35,11.35,0,0,0,.17-3.87c-.17,0-.42,1.62-.93,3.72a63.62,63.62,0,0,1-2,6.62c-.44,1.17-.76,2-1,2.6l-.83-2.22c-1.35-3.33-2.89-6.58-4.52-9.71a10.05,10.05,0,0,0,.69-3,29.1,29.1,0,0,0,.05-5.68,8.54,8.54,0,0,0-.58-3.06,11.37,11.37,0,0,0-.2,3.08c0,1.74-.16,3.89-.36,5.54-.09.81-.18,1.42-.24,1.9-2-3.75-4.14-7.31-6.28-10.56-1-1.59-2.07-3.12-3.08-4.57a12,12,0,0,0,.24-2.53,29.8,29.8,0,0,0-.33-4.68,7.59,7.59,0,0,0-.62-2.49,10.71,10.71,0,0,0,0,2.55c.08,1.44.1,3.22.08,4.61,0,.72,0,1.26,0,1.67-2.76-3.92-5.32-7.27-7.33-9.88l-3.4-4.41-.9-1.19c-.21-.27-.32-.41-.34-.4s.07.17.25.46.45.72.81,1.26c.74,1.08,1.84,2.63,3.23,4.53,2.78,3.83,6.72,9.14,10.72,15.49.49.76,1,1.53,1.46,2.32-.64-.17-1.66-.39-3.29-.72a67.85,67.85,0,0,1-6.8-1.74c-2.09-.64-3.54-1.44-3.63-1.31s.28.34.86.75a17.1,17.1,0,0,0,2.5,1.29,38.4,38.4,0,0,0,6.84,2.09,17.73,17.73,0,0,0,4.05.53c1.95,3.23,3.85,6.68,5.61,10.27-.65,0-1.64-.05-3.17-.11a59.09,59.09,0,0,1-6.81-.64,22.81,22.81,0,0,0-3.75-.55,10.91,10.91,0,0,0,3.59,1.31,35.07,35.07,0,0,0,6.92,1,17.08,17.08,0,0,0,3.63-.14c1.12,2.34,2.18,4.72,3.15,7.13.42,1.1.82,2.2,1.2,3.31-.67,0-1.82,0-3.8,0a68.78,68.78,0,0,1-7.38-.5,27.43,27.43,0,0,0-4.07-.49,12.44,12.44,0,0,0,3.94,1.26,40.91,40.91,0,0,0,7.5.83,19.37,19.37,0,0,0,4.07-.26,113.77,113.77,0,0,1,4.44,18.93A146.75,146.75,0,0,1,429.13,332c.13,4.22.08,7.14,0,9.15-.1,4-.09,4.41.08,4.43s.39-.36.7-4.4c.13-2,.27-4.95.19-9.21" transform="translate(-13.5 -40.75)"/><path class="cls-19" d="M419,310.75c-3.75-7-9.17-8.42-9.17-7.67s-.41,7.25-1.75,7.17.09-7.08-1.25-8.08-8.41-2.5-8.83-1.84,1.75,4.59-.17,4.84-3.25-4.59-4.58-5S379,302.92,379,302.92s3.5,9.66,4.33,10.33,5.5-.25,6.09,1.58-3.34,2.09-4.09,2.42.75,4.67,4,7.75,7.34,5.08,9.17,3.83,5.33-7.75,6.08-6.91-1.16,6.66-2.25,7.83-.5,1.5,1.17,1.83,12,1.17,15.25-7.75a13.36,13.36,0,0,0,.25-13.08m-30.79-5.31c-.34.29-1,.11-1.39-.4s-.5-1.15-.15-1.44,1-.11,1.39.4.5,1.15.15,1.44m7.56,14c-1.2.56-2.43.47-2.74-.2s.58-1.91,1.78-2.47,2.26-.24,2.57.44-.41,1.67-1.61,2.23M417,317.69c-.66,0-1.19-.75-1.19-1.68s.28-1.92.94-1.92,1.44,1,1.44,1.92-.54,1.68-1.19,1.68" transform="translate(-13.5 -40.75)"/><path class="cls-20" d="M467.42,299.83c-1,.59-3.67,6.34-5.17,5.59s1-5.59.08-5.59-8.5.75-9.33,2.42.17,8.58-.83,8.33-2.34-2.33-2.17-4.91.33-3.09-1.75-1.75-13.42,9.58-6.83,19.91,16.75,7.59,16.91,7.17-4.77-9.06-3.25-9.33c1.05-.19,6.42,7.33,7.17,7.41s9.33-1,12.53-11.13a.39.39,0,0,0-.32-.5c-.85-.11-2.67-.47-3.29-1.53-.84-1.42.83-2.42,2.75-1.92s3.41,1.25,6.91-11c0,0-12.41-3.75-13.41-3.17m-23.33,16.11c-.13.84-.64,1.46-1.13,1.39s-.78-.82-.65-1.66.49-1.71,1-1.63.93,1.06.8,1.9m23,3.3c-.4.65-2,.77-3,.15s-1.5-1.64-1.09-2.3,1.54-.68,2.55-.06,1.9,1.55,1.5,2.21m6.23-14.48c-.24.56-.7.9-1,.76s-.39-.71-.15-1.27.64-1.1,1-1,.45.9.21,1.47" transform="translate(-13.5 -40.75)"/><path class="cls-18" d="M467.42,299.83c-1,.59-3.67,6.34-5.17,5.59s1-5.59.08-5.59-8.5.75-9.33,2.42.17,8.58-.83,8.33-2.34-2.33-2.17-4.91.33-3.09-1.75-1.75-13.42,9.58-6.83,19.91,16.75,7.59,16.91,7.17-4.77-9.06-3.25-9.33c1.05-.19,6.42,7.33,7.17,7.41s9.33-1,12.53-11.13a.39.39,0,0,0-.32-.5c-.85-.11-2.67-.47-3.29-1.53-.84-1.42.83-2.42,2.75-1.92s3.41,1.25,6.91-11c0,0-12.41-3.75-13.41-3.17m-23.33,16.11c-.13.84-.64,1.46-1.13,1.39s-.78-.82-.65-1.66.49-1.71,1-1.63.93,1.06.8,1.9m23,3.3c-.4.65-2,.77-3,.15s-1.5-1.64-1.09-2.3,1.54-.68,2.55-.06,1.9,1.55,1.5,2.21m6.23-14.48c-.24.56-.7.9-1,.76s-.39-.71-.15-1.27.64-1.1,1-1,.45.9.21,1.47" transform="translate(-13.5 -40.75)"/><path class="cls-8" d="M427.88,344a42.42,42.42,0,0,0-1.14-5.84,40.06,40.06,0,0,0-4.23-10.21,26.91,26.91,0,0,0-4.7-5.89l-.72-.69a9.82,9.82,0,0,0-.79-.62l-1.19-.9a29.42,29.42,0,0,0-.47-3.06,55.33,55.33,0,0,1-.63-5.58,13.93,13.93,0,0,0-.26-3.11,8,8,0,0,0-.52,3.12,28.18,28.18,0,0,0,.33,5.75c.17.95.33,1.64.47,2.15-.91-.58-1.83-1.17-2.79-1.7a66,66,0,0,0-7.79-3.83c-.1-.32-.35-.86-.68-1.95a30.3,30.3,0,0,1-.81-4c-.18-1.27-.3-2.25-.46-2.25a4.9,4.9,0,0,0-.31,2.3,15.43,15.43,0,0,0,.53,4.23,7.23,7.23,0,0,0,.41,1.09c-1.78-.71-3.52-1.37-5.18-2q-2.22-.81-4.2-1.59c-.12-.26-.39-.65-.81-1.45a24.7,24.7,0,0,1-1.3-3.09c-.35-1-.61-1.79-.76-1.77s-.16.87,0,2a11.67,11.67,0,0,0,1.07,3.41c.06.11.12.19.18.29-.49-.2-1-.39-1.42-.59a.71.71,0,0,0-.47-.2c-1.29-.55-2.44-1.09-3.44-1.59-2.7-1.36-4.26-2.32-4.31-2.23a5.84,5.84,0,0,0,1.05.76c.69.47,1.74,1.09,3.06,1.85.72.4,1.54.82,2.43,1.26a7.52,7.52,0,0,0-2.43.87c-.71.4-1.17.81-1.11.9s.62-.12,1.35-.37a14.86,14.86,0,0,1,2.36-.6c.59-.07.94-.12,1.16-.17q1.2.56,2.55,1.14a1.89,1.89,0,0,0,.32.25.39.39,0,0,0,.38.05c1.09.46,2.24.93,3.43,1.4h0a8,8,0,0,0-2.57,1.43c-.69.59-1.11,1.14-1,1.25s.68-.21,1.44-.6a16.19,16.19,0,0,1,2.47-1,12.35,12.35,0,0,0,1.33-.41c2.39.94,4.9,2,7.4,3.13a10.1,10.1,0,0,0-1.45.5,12.15,12.15,0,0,0-2.29,1.34A11.79,11.79,0,0,0,399.4,319a5.65,5.65,0,0,0-1.46,2.48c.14.09.87-.88,2-1.94a15.61,15.61,0,0,1,2-1.56,15.13,15.13,0,0,1,2.15-1.15c1.21-.51,1.95-.7,2.37-.86,1.45.72,2.89,1.48,4.29,2.32,1.16.66,2.27,1.4,3.37,2.12l.2.15a8.44,8.44,0,0,0-2.21.91,13.32,13.32,0,0,0-2.18,1.58,14.07,14.07,0,0,0-1.82,2,6,6,0,0,0-1.34,2.59c.15.09.85-.93,1.94-2.09a16.76,16.76,0,0,1,3.94-3.14c1.32-.73,2.07-1,2.44-1.22l.05,0,.52.4c.25.2.51.38.75.59l.68.67a26,26,0,0,1,4.49,5.68,41.64,41.64,0,0,1,4.2,9.92c.74,2.59,1.09,4.42,1.35,5.67.47,2.53.56,2.77.72,2.76s.32-.28.05-2.87" transform="translate(-13.5 -40.75)"/><path class="cls-8" d="M477.37,304.3l-1.09.72-1.51.86a50.45,50.45,0,0,1-5.59,2.62,8.33,8.33,0,0,0,.93-3.28c.07-1.05,0-1.84-.17-1.84s-.33.74-.6,1.7a13.7,13.7,0,0,1-1.12,2.88c-.4.68-.68,1-.82,1.22-.68.25-1.37.5-2.1.75-2.25.78-4.7,1.57-7.18,2.49.11-.34.22-.78.35-1.36a22,22,0,0,0,.38-4.07c0-1.28-.14-2.24-.29-2.24a6.21,6.21,0,0,0-.48,2.18c-.19,1.23-.46,2.74-.69,3.91a14.4,14.4,0,0,0-.33,2c-1.44.56-2.88,1.16-4.3,1.84a38.31,38.31,0,0,0-5.88,3.59c-.26.19-.49.39-.74.59a11.36,11.36,0,0,0,.38-1.32,22.42,22.42,0,0,0,.36-6.23,9.46,9.46,0,0,0-.57-3.35c-.17,0-.14,1.47-.21,3.36a33.08,33.08,0,0,1-.65,6,15.61,15.61,0,0,1-1,3c-.84.76-1.63,1.54-2.35,2.31a50.37,50.37,0,0,0-6.87,9.43,73.94,73.94,0,0,0-3.57,9.75c-.59,2.19-.34,2.48-.22,2.48s.21-.19,1-2.23a91.52,91.52,0,0,1,3.71-9.5,51.7,51.7,0,0,1,6.79-9.17c.75-.8,1.57-1.6,2.44-2.39l0,0a20.64,20.64,0,0,1,2.42,1.22,14.88,14.88,0,0,1,3.72,3.43c1,1.26,1.63,2.34,1.78,2.27a6.43,6.43,0,0,0-1.14-2.72,12.07,12.07,0,0,0-3.78-3.91,7,7,0,0,0-2.28-1c.46-.39.93-.78,1.42-1.17a38.73,38.73,0,0,1,5.68-3.53l.1,0a.76.76,0,0,0,.13.07c.38.21,1.14.47,2.5,1.15a20.32,20.32,0,0,1,4.2,2.87c1.21,1.05,2,2,2.17,1.88a6.31,6.31,0,0,0-1.62-2.44,15.22,15.22,0,0,0-4.25-3.29,9.25,9.25,0,0,0-2-.77c2.46-1.14,5-2.11,7.43-3h0a15.61,15.61,0,0,1,1.58.36,15.39,15.39,0,0,1,2.89,1.36c.89.52,1.57,1,1.67.83s-.4-.75-1.21-1.46a9.2,9.2,0,0,0-3-1.78h-.05l1.79-.65c.66-.24,1.29-.49,1.92-.74a.43.43,0,0,0,.31,0,1.87,1.87,0,0,0,.48-.3c.88-.36,1.71-.73,2.49-1.09l.13,0c.19.05.54.06,1.25.19a14.53,14.53,0,0,1,2.32.75c.72.3,1.28.55,1.34.45s-.39-.52-1.07-1a7.63,7.63,0,0,0-2.43-1.05l-.27,0c1.12-.57,2.11-1.12,2.94-1.65l1.48-1,1-.81c.56-.44.86-.7.83-.73a4.68,4.68,0,0,0-1,.55" transform="translate(-13.5 -40.75)"/><path class="cls-8" d="M404.5,345.75l5.27,35.87a5.85,5.85,0,0,0,5.79,5h28.13a5.85,5.85,0,0,0,5.79-5l5.27-35.87Z" transform="translate(-13.5 -40.75)"/><path class="cls-21" d="M456.61,335.75h-54a1.71,1.71,0,0,0-1.69,1.88l1.44,13.23a1.71,1.71,0,0,0,1.69,1.52h51.09a1.71,1.71,0,0,0,1.69-1.52l1.44-13.23a1.71,1.71,0,0,0-1.69-1.88" transform="translate(-13.5 -40.75)"/><path class="cls-22" d="M89.86,372.28a11,11,0,0,0-12.58-9.14,91.19,91.19,0,0,1-28.56,0,11,11,0,0,0-3.44,21.72,112.84,112.84,0,0,0,35.44,0,11,11,0,0,0,9.14-12.58" transform="translate(-13.5 -40.75)"/><path class="cls-21" d="M63.83,328.83H62.17c-6.08,0-11-3.84-11-8.58s4.92-8.58,11-8.58h1.66c6.08,0,11,3.84,11,8.58s-4.92,8.58-11,8.58" transform="translate(-13.5 -40.75)"/><path class="cls-8" d="M90.54,351.48a10.51,10.51,0,0,0-12-8.73,98.53,98.53,0,0,1-31,0,10.5,10.5,0,0,0-3.29,20.75,120.27,120.27,0,0,0,37.62,0,10.51,10.51,0,0,0,8.73-12" transform="translate(-13.5 -40.75)"/><path class="cls-13" d="M81.63,334.62c-.82-4.66-5.69-7.84-10.87-7.1a51.64,51.64,0,0,1-14.69,0c-5.18-.73-10,2.44-10.87,7.1s2.72,9,7.9,9.76a73.24,73.24,0,0,0,20.63,0c5.19-.74,8.72-5.11,7.9-9.76" transform="translate(-13.5 -40.75)"/></g></svg>