<svg id="Layer_1" data-name="Layer 1" xmlns="http://www.w3.org/2000/svg" viewBox="0 0 541.78 548.79"><defs><style>.cls-1{fill:#bfdbff;}</style></defs><circle class="cls-1" cx="271.5" cy="62" r="62"/><path class="cls-1" d="M467,379c-11.37,1.12-34.42,3.68-45,8-4.69,1.92-13.7,7.16-17,11-5.17,6-9.82,21.72-13,29-6.4,14.68-18.81,44.23-25,59-4.29,10.23-10.31,32.15-17,41-22.11,29.25-93.4,61.38-115,91-1.26,1.73-2.62,5.9-3,8-.58,3.2-.75,9.84,0,13a39.29,39.29,0,0,0,6,12,30.56,30.56,0,0,0,8,6c3,1.41,9.68,3.29,13,3,5.13-.44,14.51-5.48,19-8,31.71-17.79,94.05-57.65,118-85,10.46-12,14.6-59.87,30-56,16.25,4.08,2.43,50.43,0,67-.76,5.16-2.94,15.77-6,20-3.57,5-14.76,10.88-20,14a177.71,177.71,0,0,1-18,9c-18.47,7.48-57.68,16.16-76,24-5.25,2.25-15.44,7.57-20,11s-12.91,11.26-16,16c-2.64,4-6.11,13.25-7,18-.83,4.42-.55,13.53,0,18,.38,3.07,1.62,9.23,3,12,2.3,4.61,8.87,12.92,13,16,6.29,4.69,21.44,9.91,29,12,8.28,2.28,25.41,4.93,34,5,9.58.07,31.45-12,38-5,2.61,2.79-3.51,11.21-3,15,.45,3.32,3.15,10.24,6,12,2.55,1.58,9,.38,12,0,11.79-1.51,34.42-9.33,46-12,11.18-2.57,33.65-7.34,45-9,7.95-1.16,24-2.74,32-3,17-.54,51,1.39,68,2,17.75.64,53.27,4.14,71,3,14.68-.94,44.87-3.36,58-10,7.73-3.91,21.13-16.25,25-24,2.81-5.63,3.82-18.76,3-25-.88-6.67-5.94-19.63-10-25-5-6.54-18.79-16.09-26-20-17.94-9.72-58.29-18.86-77-27-10.36-4.51-31.82-13.21-40-21-3.57-3.4-8.77-12.23-10-17-4.88-18.89-17.06-73.84,2-78,12.78-2.79,15.12,36.56,23,47,4,5.37,14.87,13.65,20,18,13.42,11.39,41.06,33.24,55,44,11.6,9,34.61,27.17,47,35,4.07,2.57,12.22,8.45,17,9s15-2.09,19-5c3.8-2.8,9-11.38,10-16,1-5-1-15.35-3-20-1.12-2.62-5-7-7-9-22.64-22.7-77-57.75-101-79-1.85-1.64-5.63-4.94-7-7-6.58-9.9-13.65-32.94-18-44-8-20.39-18.71-63.85-31-82-2.28-3.37-8.47-9-12-11-5.22-3-17.09-5.9-23-7-13.55-2.52-41.22-3.46-55-4C503.76,377.52,479.19,377.8,467,379Z" transform="translate(-231.5 -227)"/><path class="cls-1" d="M378.5,756.5c4.8-9.16,26.25-24.26,33-29,8.8-6.17,24.37-21.28,32-30,3.25-3.71,12.22-8.8,17-10,5.83-1.46,18.42-1.22,24,1,4.61,1.83,10.32,11.35,15,13,6.84,2.42,21.77-.43,29-1,14.31-1.12,42.69-5.88,57-7,8.83-.69,34-1.14,34-10" transform="translate(-231.5 -227)"/></svg>