<svg width="73" height="34" viewBox="0 0 73 34" fill="none" xmlns="http://www.w3.org/2000/svg">
<path d="M63.9737 16.8586C63.9737 26.1693 55.2432 33.7171 44.4737 33.7171C33.7041 33.7171 24.9737 26.1693 24.9737 16.8586C24.9737 7.54784 33.7041 0 44.4737 0C55.2432 0 63.9737 7.54784 63.9737 16.8586Z" fill="white"/>
<path d="M72.5263 24.2527C72.5263 29.4798 67.625 33.7171 61.5789 33.7171C55.5329 33.7171 50.6316 29.4798 50.6316 24.2527C50.6316 19.0256 55.5329 14.7882 61.5789 14.7882C67.625 14.7882 72.5263 19.0256 72.5263 24.2527Z" fill="white"/>
<path d="M38.3158 22.0344C38.3158 28.4866 32.2657 33.7171 24.8026 33.7171C17.3395 33.7171 11.2895 28.4866 11.2895 22.0344C11.2895 15.5823 17.3395 10.3518 24.8026 10.3518C32.2657 10.3518 38.3158 15.5823 38.3158 22.0344Z" fill="white"/>
<path d="M20.1842 24.9921C20.1842 29.8108 15.6658 33.7171 10.0921 33.7171C4.51839 33.7171 0 29.8108 0 24.9921C0 20.1734 4.51839 16.267 10.0921 16.267C15.6658 16.267 20.1842 20.1734 20.1842 24.9921Z" fill="white"/>
<path d="M9.92105 23.0696H62.6053V33.7171H9.92105V23.0696Z" fill="white"/>
<ellipse cx="30.7895" cy="20.2599" rx="1.02632" ry="3.40129" fill="#4D4D4D"/>
<ellipse cx="45.1579" cy="20.2599" rx="1.02632" ry="3.40129" fill="#4D4D4D"/>
<path d="M34.5526 23.6611C34.5526 26.0006 40.9849 26.0538 41.0526 23.6611" stroke="black"/>
</svg>
