<svg id="Capa_1" data-name="Capa 1" xmlns="http://www.w3.org/2000/svg" viewBox="0 0 1942.49 1573.6"><defs><style>.cls-1{fill:#d7eeff;}.cls-2{fill:#a4d4ff;}.cls-3{fill:#65b1ea;}.cls-4{fill:#fff;}.cls-5{fill:#1581b7;}.cls-6{fill:#1a4e87;}.cls-7{fill:#387dba;}.cls-8{fill:#fc7315;}.cls-9{fill:#d86416;}.cls-10{fill:#f4f4f4;}.cls-11{fill:#fcbc90;}.cls-12{fill:#ffd2b3;}.cls-13{fill:#3b4889;}</style></defs><path class="cls-1" d="M328.46,1185.91c43.14,51.72,93.55,97.21,134.41,150.74,17,22.3,32.44,46.52,44.39,72C524,1444.45,534,1482.77,532.16,1522c-2.43,51.75-24.88,99.72-49.9,145.57-4.45,8.16-9,16.26-13.5,24.29l1423.75-1a148,148,0,0,1-48.49-23.3c-55.58-40.17-85.87-116.56-65.34-182.92,8.87-28.7,24.88-53.37,44.36-76,28.92-33.61,65.47-62.67,97.59-93.67,162.27-156.6,227-406.77,161.13-622.44-31.72-103.8-96.26-203.15-194.59-249.12-142.42-66.59-312.71-6.92-466.22-40.84C1315.69,379.38,1225.7,314,1131,262.56,995.34,189,842.05,142.15,688,150.07s-308.46,75-403.46,196.59C239.26,404.58,208.43,472.93,189,543.82,128.83,763.44,182.61,1011,328.46,1185.91Z" transform="translate(-164.76 -149.2)"/><rect class="cls-2" x="1141.32" y="1146.21" width="138.01" height="45.11" rx="18.63"/><rect class="cls-2" x="1103.74" y="1088.12" width="138.01" height="45.11" rx="18.63"/><rect class="cls-2" x="1027.9" y="1206.26" width="138.01" height="45.11" rx="18.63"/><rect class="cls-2" x="168.57" y="267.08" width="138.01" height="45.11" rx="18.63"/><rect class="cls-2" x="1322.28" y="306.35" width="138.01" height="45.11" rx="18.63"/><rect class="cls-2" x="232.51" y="209" width="138.01" height="45.11" rx="18.63"/><rect class="cls-2" x="328.42" y="327.13" width="138.01" height="45.11" rx="18.63"/><rect class="cls-2" x="1428.57" y="366.41" width="138.01" height="45.11" rx="18.63"/><path class="cls-3" d="M527.65,1468.45h1257c-2.22,5.26-4.21,10.66-5.93,16.22-20.53,66.36,9.76,142.75,65.34,182.92H482.26c25-45.85,47.47-93.82,49.9-145.57A211.61,211.61,0,0,0,527.65,1468.45Z" transform="translate(-164.76 -149.2)"/><rect class="cls-3" x="1367.49" y="587.04" width="591.52" height="574.32" rx="20.55" transform="translate(3161.75 1599.2) rotate(180)"/><rect class="cls-4" x="1405.93" y="619.47" width="514.65" height="509.46" transform="translate(3161.75 1599.2) rotate(180)"/><rect class="cls-3" x="1637.42" y="619.47" width="51.67" height="509.46" transform="translate(3161.75 1599.2) rotate(180)"/><rect class="cls-5" x="1657.58" y="587.04" width="11.34" height="574.32" transform="translate(3161.75 1599.2) rotate(180)"/><path class="cls-5" d="M1743.06,897.27h-68.27a11.54,11.54,0,0,1-11.54-11.53h0a11.54,11.54,0,0,1,11.54-11.54h68.27a11.54,11.54,0,0,1,11.54,11.54h0A11.54,11.54,0,0,1,1743.06,897.27Z" transform="translate(-164.76 -149.2)"/><path class="cls-2" d="M1917.73,722.83,1813.52,622.09a9.35,9.35,0,0,0-6.49-2.62h0a9.34,9.34,0,0,0-7,15.57l118.11,131.53a9.36,9.36,0,0,1,2.39,6.24v98.68a9.34,9.34,0,0,1-16.51,6L1705.59,639.28a9.33,9.33,0,0,0-16.5,6v77.14a9.28,9.28,0,0,0,2,5.71l227.58,294.09a9.34,9.34,0,0,1,2,5.72v80.84a9.33,9.33,0,0,1-15.38,7.11L1704.46,945.31a9.33,9.33,0,0,0-15.37,7.11V968a9.33,9.33,0,0,0,3.56,7.34l174.27,137a9.34,9.34,0,0,1-5.77,16.67h-21.36a9.32,9.32,0,0,1-5.74-2l-129.89-101.24a9.34,9.34,0,0,0-15.07,7.37V1080a9.34,9.34,0,0,0,2.59,6.46l38,39.57a9.34,9.34,0,0,0,6.73,2.87h174.86a9.34,9.34,0,0,0,9.34-9.33V729.54A9.34,9.34,0,0,0,1917.73,722.83Z" transform="translate(-164.76 -149.2)"/><path class="cls-2" d="M1634.57,722.83,1530.36,622.09a9.35,9.35,0,0,0-6.49-2.62h0a9.34,9.34,0,0,0-6.95,15.57L1635,766.57a9.32,9.32,0,0,1,2.39,6.24v98.68a9.34,9.34,0,0,1-16.51,6L1422.43,639.28a9.33,9.33,0,0,0-16.5,6v77.14a9.28,9.28,0,0,0,2,5.71l227.58,294.09a9.34,9.34,0,0,1,2,5.72v80.84a9.33,9.33,0,0,1-15.38,7.11L1421.31,945.31a9.34,9.34,0,0,0-15.38,7.11V968a9.33,9.33,0,0,0,3.56,7.34l174.27,137a9.33,9.33,0,0,1-5.77,16.67h-21.36a9.32,9.32,0,0,1-5.74-2L1421,1025.72a9.34,9.34,0,0,0-15.07,7.37V1080a9.3,9.3,0,0,0,2.6,6.46l38,39.57a9.34,9.34,0,0,0,6.73,2.87h174.86a9.34,9.34,0,0,0,9.34-9.33V729.54A9.34,9.34,0,0,0,1634.57,722.83Z" transform="translate(-164.76 -149.2)"/><rect class="cls-5" x="1333.43" y="522.21" width="30" height="719.04"/><rect class="cls-3" x="382.68" y="587.04" width="591.52" height="574.32" rx="20.55" transform="translate(1192.13 1599.2) rotate(180)"/><rect class="cls-4" x="421.12" y="619.47" width="514.65" height="509.46" transform="translate(1192.13 1599.2) rotate(180)"/><rect class="cls-3" x="652.61" y="619.47" width="51.67" height="509.46" transform="translate(1192.13 1599.2) rotate(180)"/><rect class="cls-5" x="672.77" y="587.04" width="11.34" height="574.32" transform="translate(1192.13 1599.2) rotate(180)"/><path class="cls-5" d="M758.26,897.27H690a11.54,11.54,0,0,1-11.54-11.53h0A11.54,11.54,0,0,1,690,874.2h68.28a11.53,11.53,0,0,1,11.53,11.54h0A11.53,11.53,0,0,1,758.26,897.27Z" transform="translate(-164.76 -149.2)"/><path class="cls-2" d="M932.92,722.83,828.71,622.09a9.35,9.35,0,0,0-6.49-2.62h0A9.33,9.33,0,0,0,815.28,635l118.1,131.53a9.32,9.32,0,0,1,2.39,6.24v98.68a9.34,9.34,0,0,1-16.51,6L720.78,639.28a9.33,9.33,0,0,0-16.5,6v77.14a9.28,9.28,0,0,0,2,5.71l227.59,294.09a9.39,9.39,0,0,1,1.95,5.72v80.84a9.33,9.33,0,0,1-15.38,7.11L719.66,945.31a9.34,9.34,0,0,0-15.38,7.11V968a9.33,9.33,0,0,0,3.56,7.34l174.27,137a9.33,9.33,0,0,1-5.77,16.67H855a9.32,9.32,0,0,1-5.74-2L719.35,1025.72a9.34,9.34,0,0,0-15.07,7.37V1080a9.3,9.3,0,0,0,2.6,6.46l38,39.57a9.34,9.34,0,0,0,6.73,2.87H926.43a9.34,9.34,0,0,0,9.34-9.33V729.54A9.34,9.34,0,0,0,932.92,722.83Z" transform="translate(-164.76 -149.2)"/><path class="cls-2" d="M649.76,722.83,545.55,622.09a9.35,9.35,0,0,0-6.49-2.62h0A9.33,9.33,0,0,0,532.12,635l118.1,131.53a9.32,9.32,0,0,1,2.39,6.24v98.68a9.34,9.34,0,0,1-16.51,6L437.62,639.28a9.33,9.33,0,0,0-16.5,6v77.14a9.34,9.34,0,0,0,1.95,5.71l227.59,294.09a9.39,9.39,0,0,1,2,5.72v80.84a9.33,9.33,0,0,1-15.38,7.11L436.5,945.31a9.34,9.34,0,0,0-15.38,7.11V968a9.31,9.31,0,0,0,3.57,7.34l174.26,137a9.33,9.33,0,0,1-5.77,16.67H571.82a9.32,9.32,0,0,1-5.74-2L436.19,1025.72a9.34,9.34,0,0,0-15.07,7.37V1080a9.3,9.3,0,0,0,2.6,6.46l38,39.57a9.35,9.35,0,0,0,6.74,2.87H643.27a9.34,9.34,0,0,0,9.34-9.33V729.54A9.34,9.34,0,0,0,649.76,722.83Z" transform="translate(-164.76 -149.2)"/><rect class="cls-2" x="421.07" y="1667.59" width="1501.42" height="55.22" rx="27.61" transform="translate(2178.81 3241.19) rotate(180)"/><rect class="cls-3" x="525.88" y="1216.09" width="283.16" height="252.35" rx="8.72" transform="translate(1170.16 2535.34) rotate(180)"/><rect class="cls-2" x="582.54" y="1216.09" width="283.16" height="252.35" rx="8.72" transform="translate(1283.48 2535.34) rotate(180)"/><rect class="cls-3" x="602.87" y="1235.22" width="242.49" height="98.83" rx="16.65" transform="translate(1283.48 2420.06) rotate(180)"/><rect class="cls-3" x="602.87" y="1351.83" width="242.49" height="98.83" rx="16.65" transform="translate(1283.48 2653.29) rotate(180)"/><rect class="cls-2" x="650.13" y="1267.42" width="147.98" height="34.41" rx="17.21" transform="translate(1283.48 2420.06) rotate(180)"/><rect class="cls-2" x="650.13" y="1384.04" width="147.98" height="34.41" rx="17.21" transform="translate(1283.48 2653.29) rotate(180)"/><rect class="cls-2" x="814.95" y="272.93" width="138.01" height="45.11" rx="18.63" transform="translate(1603.16 441.77) rotate(180)"/><rect class="cls-2" x="751.02" y="331.01" width="138.01" height="45.11" rx="18.63" transform="translate(1475.29 557.94) rotate(180)"/><rect class="cls-2" x="655.11" y="212.88" width="138.01" height="45.11" rx="18.63" transform="translate(1283.48 321.66) rotate(180)"/><path class="cls-5" d="M1622,1468.45H1404.38a6.74,6.74,0,0,1-6.18-9.46,125.79,125.79,0,0,1,230,0A6.75,6.75,0,0,1,1622,1468.45Z" transform="translate(-164.76 -149.2)"/><path class="cls-3" d="M1487.24,1406.64c-11,10.67-23,26.65-24.56,46.47a3.35,3.35,0,0,1-3.32,3.09h-11.93a3.34,3.34,0,0,1-3.29-3.91c1.65-9.45,8.78-34,39.12-50.93A3.34,3.34,0,0,1,1487.24,1406.64Z" transform="translate(-164.76 -149.2)"/><path class="cls-3" d="M1592.4,1456.2h-28a3.86,3.86,0,0,1-3.63-2.56c-7.5-21.16-21.8-36.93-31.18-45.58a3.85,3.85,0,0,1,3.14-6.65,83.17,83.17,0,0,1,63.76,48.54A4.46,4.46,0,0,1,1592.4,1456.2Z" transform="translate(-164.76 -149.2)"/><path class="cls-5" d="M1647,566.36l-63,95.3a21.77,21.77,0,0,1-18.15,9.75H1460.52a21.77,21.77,0,0,1-18.15-9.75l-63-95.3a21.76,21.76,0,0,1,18.15-33.76h231.36A21.76,21.76,0,0,1,1647,566.36Z" transform="translate(-164.76 -149.2)"/><path class="cls-3" d="M1524.11,625.9c11,9.08,4.59,27-9.68,27H1473.2a17.29,17.29,0,0,1-14.41-7.73l-50-75.64a17.6,17.6,0,0,1-2.39-5.36c-3.53-14,13.37-24.26,24.54-15Z" transform="translate(-164.76 -149.2)"/><rect class="cls-5" x="1384.74" y="492.5" width="4" height="105.41"/><path class="cls-5" d="M1555.59,747.1a4.09,4.09,0,1,1-4.09-4.09A4.09,4.09,0,0,1,1555.59,747.1Z" transform="translate(-164.76 -149.2)"/><polygon class="cls-6" points="557.57 1349.31 766.08 812.78 822.76 826.7 656.5 1377.9 557.57 1349.31"/><path class="cls-6" d="M685.6,1642.4l172.11-86.57a13.3,13.3,0,0,1,6-1.45h39.55c14.21,0,18.53,19.29,5.68,25.36l-186.3,86.57a13.33,13.33,0,0,1-5.69,1.28H691.64C677.63,1667.59,673.12,1648.75,685.6,1642.4Z" transform="translate(-164.76 -149.2)"/><path class="cls-6" d="M1377.37,1607s16.21,60.7,61.31,60.7,51.74-26.56,60.35-53.08C1513.4,1570.33,1377.37,1607,1377.37,1607Z" transform="translate(-164.76 -149.2)"/><path class="cls-7" d="M700.38,1497.1l935.23,57.28a28.23,28.23,0,0,1,25.57,35.07l-3,12a28.23,28.23,0,0,1-29.13,21.28l-938.65-56a28.23,28.23,0,0,1-23.64-40.49l6.45-13.3A28.22,28.22,0,0,1,700.38,1497.1Z" transform="translate(-164.76 -149.2)"/><path class="cls-7" d="M1118.75,1020.85,880.21,979.41a20.44,20.44,0,0,1-13-32.88l4.71-6A20.44,20.44,0,0,1,890.83,933l244.86,40.61c18.94,2.69,24.14,27.61,7.85,37.64l-11,6.8A20.49,20.49,0,0,1,1118.75,1020.85Z" transform="translate(-164.76 -149.2)"/><path class="cls-7" d="M861.94,963.79l-36.4-144.74a20.44,20.44,0,0,1,19.83-25.43h12.51a20.44,20.44,0,0,1,14.64,6.17L998,928.55A20.45,20.45,0,0,1,986.51,963L885,979A20.44,20.44,0,0,1,861.94,963.79Z" transform="translate(-164.76 -149.2)"/><path class="cls-6" d="M831.28,1505.48l804.33,48.9S1403,1614,831.28,1505.48Z" transform="translate(-164.76 -149.2)"/><path class="cls-6" d="M1588.54,1368.51q-2.85-.59-5.74-1.12t-5.56-1c-2-.37-4-.71-6-1-7.16-1.21-14.42-2.29-21.69-3.28q-3.37-.46-6.73-.87l-3.56-.44c-1.09-.14-2.17-.27-3.27-.39-2.7-.32-5.39-.63-8.07-.91-1.94-.21-3.9-.41-5.84-.6-5.25-.54-10.46-1-15.59-1.45l-5.77-.46c-7.92-.6-15.61-1.09-23-1.48a.66.66,0,0,0-.14,0l-.95,0a38.93,38.93,0,0,1-23-9.58c-15.48-13.4-25.61-21.62-25.61-21.62-27.69-19.94-57.06-57.59-82.62-96.16-40-60.41-70.66-123-70.66-123s25.85-175.88,87.74-113.33c92.33,93.32,131.6,282.33,131.6,282.33,1,.58,2,1.14,3,1.73C1534.65,1297.68,1565.09,1332.88,1588.54,1368.51Z" transform="translate(-164.76 -149.2)"/><path class="cls-6" d="M1648.34,1386.25c-.72-.33-1.45-.65-2.2-1-15.88-6.92-35.94-12.45-57.6-16.78q-2.85-.59-5.74-1.12t-5.56-1q-3-.54-6-1c-7.16-1.21-14.42-2.29-21.69-3.28q-3.36-.45-6.73-.87l-3.56-.44-3.27-.39c-2.7-.32-5.39-.63-8.07-.91-1.94-.21-3.9-.41-5.84-.6-5.25-.54-10.46-1-15.59-1.45l-5.77-.46c-7.92-.6-15.61-1.09-23-1.48a.66.66,0,0,0-.14,0,37.68,37.68,0,0,1-24-11.2L1378,1267.46c12-3.29,25.15-4.67,39-4.56,25.35.18,53,5.34,80,12.83,35.51,9.86,69.87,23.74,96.43,35.74,30.2,13.65,50.25,24.84,50.25,24.84l4.44,48.33Z" transform="translate(-164.76 -149.2)"/><path class="cls-7" d="M1588.54,1368.51q-2.85-.59-5.74-1.12t-5.56-1q-3-.54-6-1c-7.16-1.21-14.42-2.29-21.69-3.28q-3.36-.45-6.73-.87l-3.56-.44-3.27-.39c-2.7-.32-5.39-.63-8.07-.91-1.94-.21-3.9-.41-5.84-.6-5.25-.54-10.46-1-15.59-1.45l-5.77-.46c-7.92-.6-15.61-1.09-23-1.48a.66.66,0,0,0-.14,0l-.95,0a38.93,38.93,0,0,1-23-9.58c-15.48-13.4-25.61-21.62-25.61-21.62-27.69-19.94-96.39-105.24-122-143.8l13.09-98.6s89.28,155.78,97.88,181.12c7.49,22,21,48.32,45.46,69.68a22.28,22.28,0,0,0,8.83,4.72Z" transform="translate(-164.76 -149.2)"/><path class="cls-7" d="M1293.4,1197a567.54,567.54,0,0,1-48.27,31.4c-12.1,7.06-22.77,12.75-30.89,16.88a5.17,5.17,0,0,1-.46.24h-.07c-9.87,5-15.85,7.69-15.85,7.69,2.64,66.39-48.46,135.12-84.65,175.19l0,.07a459.06,459.06,0,0,1-34.63,34.81h0l-46.92-21.95c1.12-1.22,2.22-2.48,3.3-3.8,9.91-11.89,18.93-27.59,27-45.09,32-69,49.74-165.75,49.74-165.75,2.09-19.36,11.16-42.66,23.45-66.6,35.6-69.22,98.35-143.83,98.35-143.83s1.71-1.4,4.77-3.7c22.54-16.93,118.69-82.89,148.85-2.25a120.87,120.87,0,0,1,5.58,20.41C1405.39,1097.68,1348.81,1156.65,1293.4,1197Z" transform="translate(-164.76 -149.2)"/><path class="cls-8" d="M1081,1469.76l-3.93,43.65a8.66,8.66,0,0,1-12.64,7.18l-133.28-72.41a9.28,9.28,0,0,1-2.73-13.73l3.67-4.74a8.41,8.41,0,0,1,11-2.2c10.16,5.89,30.18,16.91,41.66,19.25h.05c12.78,2.56,34.65-3.79,42.68-6.35a8.19,8.19,0,0,1,6.09.39l15.52,7.27,26.86,12.58A9.11,9.11,0,0,1,1081,1469.76Z" transform="translate(-164.76 -149.2)"/><path class="cls-9" d="M1049,1448.08c-33.19,17.18-63-.53-64.29-1.31,12.78,2.56,34.65-3.79,42.68-6.35a8.19,8.19,0,0,1,6.09.39Z" transform="translate(-164.76 -149.2)"/><path class="cls-9" d="M1644.78,1334.65l42.18-.28c6.18,0,12.15,5.59,11.45,10.78L1681,1471.92c-.64,4.62-6.33,6.4-11.78,3.67l-5.8-2.89c-4.18-2.09-6.78-6.19-6.17-9.71,1.68-9.7,4.43-28.75,2.29-39.33,0,0,0,0,0,0-2.42-11.77-16.57-31-22-38a8.18,8.18,0,0,1-1.92-5.53l.94-14.66,1.63-25.37C1638.4,1336.84,1641.05,1334.68,1644.78,1334.65Z" transform="translate(-164.76 -149.2)"/><path class="cls-10" d="M1663.41,1472.69s12.17,3.79,17.57-.77l12.71-135.37,6.51,2.3c3.89,1.38,6.61,5,6.09,8.18L1685,1477.87c-.48,3-4.28,4.07-7.8,2.19Z" transform="translate(-164.76 -149.2)"/><path class="cls-8" d="M1636.57,1365.42c28.5,28.47,23.2,57,23,58.2-2.42-11.77-16.57-31-22-38a8.18,8.18,0,0,1-1.92-5.53Z" transform="translate(-164.76 -149.2)"/><path class="cls-6" d="M1293.4,1197a567.54,567.54,0,0,1-48.27,31.4c-15.93,8.81-27.08,14.91-30.89,16.88a5.17,5.17,0,0,1-.46.24h-.07c-9.87,5-15.85,7.69-15.85,7.69,2.64,66.39-48.46,135.12-84.65,175.19,2-2.82,70.94-100.55,60.36-178.69a16.37,16.37,0,0,1,8-16.3c99.24-58.16,220.68-152.91,211.14-202.68C1405.39,1097.68,1348.81,1156.65,1293.4,1197Z" transform="translate(-164.76 -149.2)"/><path class="cls-11" d="M1388.64,723.13s41.74,33.49,61.18,64.45a28,28,0,0,1-6.69,37.28c-26.56,20.2-81.15,56.51-130.52,56.73,0,0-11.16,23-38.69,17.84s-65.66-32-61.8-37,30.89-13.6,57.34-13.95c0,0-18,.14-31.36-11.9,0,0,25.12-11.27,66.43,11.05,0,0,17.5-13.27,50.94-43.43a79.87,79.87,0,0,1-31.22-24.9C1310.46,761.1,1388.64,723.13,1388.64,723.13Z" transform="translate(-164.76 -149.2)"/><path class="cls-9" d="M1324.25,779.28s-87.84-81.76-36.3-116.46,107.37,54.48,107.37,54.48Z" transform="translate(-164.76 -149.2)"/><path class="cls-8" d="M1398.46,1030.54,1213,1031.85s15.8-51.59,7.27-100.62a165.45,165.45,0,0,0-6.3-25,423.88,423.88,0,0,1-11.62-42.13c-14.68-65.47-21.19-158.69,31.52-186.14,65.74-34.26,112.77-63.29,143.08,74.55,11.37,51.8-22.23,157.42,0,196.32S1398.46,1030.54,1398.46,1030.54Z" transform="translate(-164.76 -149.2)"/><path class="cls-8" d="M1186.46,767.54s14.29-112.73,81.26-91c59.09,19.2,8.43,120.1,8.43,120.1Z" transform="translate(-164.76 -149.2)"/><path class="cls-9" d="M1220.31,931.23a165.45,165.45,0,0,0-6.3-25,423.88,423.88,0,0,1-11.62-42.13c2.45-4,4.07-6.35,4.07-6.35l61.25-63.79,9.34-46.84S1302.52,903.51,1220.31,931.23Z" transform="translate(-164.76 -149.2)"/><path class="cls-12" d="M1267.71,793.94s-8.29,60.34-27.3,91.84a24.23,24.23,0,0,1-27,10.73c-10-2.69-24.4-6.81-40.58-12.33h0c-43.57-14.86-100.31-39.84-121-74.07,0,0-25.47,2.26-35.19-24s-6.24-72.78,0-72,27.37,19.36,41.27,41.74c-1.23-2.17-8.93-16.51-5.73-32.74,0,0,22.56,15.76,24.65,62.66,0,0,61.26,8.21,104.32,21.4a79.89,79.89,0,0,1,5.32-39.59C1231.61,752.66,1267.71,793.94,1267.71,793.94Z" transform="translate(-164.76 -149.2)"/><path class="cls-12" d="M1295.12,599.2l10.61,50.36-71.86,27.35-1.16-30.41-1.1-28.27s-.15.1-.4.3c-1.77,1.19-9.93,5.66-31.86,5.26-25.32-.47-18.21-41.21-6.64-95.83s112-40.75,124.09,0S1295.12,599.2,1295.12,599.2Z" transform="translate(-164.76 -149.2)"/><path class="cls-11" d="M1267.71,602s-6.4,28.17-35,44.49l-1.1-28.27,8.17-3.68Z" transform="translate(-164.76 -149.2)"/><path class="cls-4" d="M925.38,1429.72s-5.25,10.93-.93,18.46L1073.32,1520l-6.06,7.08c-1.86,3.43-9,2.73-12.33.85l-137.23-78.1a6,6,0,0,1-1.55-9Z" transform="translate(-164.76 -149.2)"/><path class="cls-13" d="M1267,548.66a4.6,4.6,0,0,0,6.16-2.52c2.7-6.86,9.29-18.79,20.59-11.13,13.53,9.16,7.87,28-5.22,32.41a5.45,5.45,0,0,0-3.28,7.21l9.85,24.57S1330.58,579.62,1333,555c2.16-21.94,3.43-52.27-8.62-60.89a21.87,21.87,0,0,1-6.82-8c-3.44-6.9-13.27-17.8-41.34-21.14-29.74-3.53-48.07,6.49-75,5.84-11.73-.28-18.37,13.46-10.77,22.41,10.84,12.8,16.78,22.72,30.61,26.45a61.62,61.62,0,0,1,27.67,15.65C1253.68,540.31,1260,545.49,1267,548.66Z" transform="translate(-164.76 -149.2)"/><path class="cls-11" d="M1267.71,793.94s-8.29,60.34-27.3,91.84a24.23,24.23,0,0,1-27,10.73c-10-2.69-24.4-6.81-40.58-12.33,50.83,8.61,78.87-50.36,68.73-78.48s-55.12-38.16-55.12-38.16C1231.61,752.66,1267.71,793.94,1267.71,793.94Z" transform="translate(-164.76 -149.2)"/><path class="cls-12" d="M1198.14,529.1s-16.29,13.89-24.47,31.55,27.5,13.4,27.5,13.4" transform="translate(-164.76 -149.2)"/></svg>