<svg id="Layer_1" data-name="Layer 1" xmlns="http://www.w3.org/2000/svg" viewBox="0 0 2660.14 1703.61"><defs><style>.cls-1{fill:#cbe2fa;}.cls-2{fill:#184655;}.cls-3{fill:#f7a491;}.cls-4{fill:#ded3d4;}.cls-5{fill:#f47458;}.cls-6{fill:#fff;}.cls-7{fill:#3c8f7c;}.cls-8{fill:#50bfa5;}.cls-9{fill:#355389;}.cls-10{fill:#466eb6;}.cls-11{fill:#13375b;}.cls-12{fill:#fae0b2;}.cls-13{fill:#f7cc7f;}.cls-14{fill:#b75742;}</style></defs><path class="cls-1" d="M2106.93,366.76c355.8,287.46,259.56,619.06,259.56,619.06s431.19,63.84,500.27,395-72.9,445.35-72.9,445.35H388.67S60,1038,471.3,509.45C829,49.76,1680,21.83,2106.93,366.76Z" transform="translate(-225.58 -132.97)"/><polygon class="cls-2" points="1107.63 1091.05 1136.74 1682.86 1112.61 1682.88 1033.8 1084.2 1107.63 1091.05"/><path class="cls-2" d="M2807.8,1826.2c0-5.73-4.32-10.38-9.64-10.38H235.44a10.13,10.13,0,0,0-9.86,10.38h0a10.13,10.13,0,0,0,9.86,10.38H2798.16c5.32,0,9.64-4.65,9.64-10.38Z" transform="translate(-225.58 -132.97)"/><path class="cls-3" d="M1168.64,755.43l-42.31,119.51s-37.33-77.64-60.87-167c-37,13.21-61,28.13-90.24,53.56,34.18,83,98.62,219,149.51,226.5,39.61,5.82,80-188.84,80-188.84Z" transform="translate(-225.58 -132.97)"/><path class="cls-3" d="M1188.53,686.33c4.94-5.19,17-10.84,23-5.33s3.59,14.53,7,19c3.07,4,6.54,11,8.58,17.43.58,1.8,4.58,15.45,5.78,19.35s-28.18,62.35-28.18,62.35l-42.84-21.91S1183.58,691.52,1188.53,686.33Z" transform="translate(-225.58 -132.97)"/><path class="cls-4" d="M1050.3,663.29s30.43,80.67,38.21,106.14,23.35,62.27,23.35,62.27l-84.2,54.49-59.44-126Z" transform="translate(-225.58 -132.97)"/><path class="cls-5" d="M1194.32,696.09v2.47a76.08,76.08,0,0,1-2.72,19.85c-2,7.44-3.9,17.46-.55,20.81,5.56,5.57,9.56-7,9.56-7s-10.29,11.07-7.93,15.95c3.1,6.4,12.07,0,12.07,0s-6.07,8.41,0,10.72,18.36-18.48,18.36-18.48l7.17-10.33-29.64-35.89Z" transform="translate(-225.58 -132.97)"/><path class="cls-6" d="M1225.76,743.28l17.64-.46-4.55-16.64-13.66.47c-6.46.22-12-7.06-12.28-16.23l-.56-16.63c-.32-9.18,4.68-16.82,11.13-17l17.56-.6-.57-16.63-17.56.6c-12.91.44-22.9,15.72-22.27,34.07l.57,16.63C1201.83,729.16,1212.85,743.73,1225.76,743.28Z" transform="translate(-225.58 -132.97)"/><path class="cls-6" d="M1326.72,657.41l2.6,76.16a31.69,31.69,0,0,1-30.59,32.76l-27.14.93a31.69,31.69,0,0,1-32.76-30.59l-2.94-85.82,90.5-3.1Z" transform="translate(-225.58 -132.97)"/><path class="cls-3" d="M1213.47,685.87s-25.42,38.73-22.12,45.48,29.48-28,29.48-28S1220.09,684.46,1213.47,685.87Z" transform="translate(-225.58 -132.97)"/><path class="cls-3" d="M1228.3,713.4s-26.43,36.09-30.86,33c-7-5,22.14-44.94,22.14-44.94S1228.3,699.87,1228.3,713.4Z" transform="translate(-225.58 -132.97)"/><path class="cls-3" d="M1233,726.38s-22.61,29.79-28.22,24.18,23.88-37.63,23.88-37.63S1236.39,720.66,1233,726.38Z" transform="translate(-225.58 -132.97)"/><path class="cls-3" d="M1173.22,734.24s-1.83-31,1.63-34.41,27.58-17.55,31.09-14-20.53,27.13-20.53,27.13Z" transform="translate(-225.58 -132.97)"/><rect class="cls-7" x="489.07" y="1133.49" width="604.05" height="163.99" rx="71.52"/><path class="cls-8" d="M890.47,1280.16H826.79L660.62,822.58a44.21,44.21,0,0,0-40.79-28.88l-199.21-2.86c-30.67-.31-59.44,43.52-42.45,99.78l127.14,375.46h-.07l35.06,112.61,373.45,3.92Z" transform="translate(-225.58 -132.97)"/><path class="cls-7" d="M959.82,1284.4l-324.09-.71L486.11,851.58c-10.22-29.5,11.42-60.38,42.09-60.07l216.11,2.19a44.21,44.21,0,0,1,40.79,28.88Z" transform="translate(-225.58 -132.97)"/><polygon class="cls-7" points="876.02 1682.85 706.4 1211.08 674.28 1223.16 839.36 1682.85 876.02 1682.85"/><polygon class="cls-7" points="342.7 1682.88 513.79 1208.46 545.91 1220.54 379.1 1682.88 342.7 1682.88"/><polygon class="cls-7" points="965.62 1682.86 799.8 1230.18 831.92 1218.09 1003.62 1682.85 965.62 1682.86"/><polygon class="cls-7" points="225.71 1682.88 392.47 1209.86 360.35 1197.55 189.24 1682.88 225.71 1682.88"/><path class="cls-8" d="M1111.22,1266.57s-219.8,43.5-280,33.8c-77.08-12.4-201.42-33.91-201.42-33.91-42.56,0-92.33,32.13-92.33,71.63v21c0,39.5,34.5,71.52,77.06,71.52h496.72c42.57,0,77.07-32,77.07-71.52v-21C1188.29,1298.59,1153.79,1266.57,1111.22,1266.57Z" transform="translate(-225.58 -132.97)"/><path class="cls-3" d="M1143,1636.94c9,40.36,12.48,115.25,10.65,124-.54,2.52,2.17,12.81,3.54,15.13,52.29,28.77,104.77,16.5,147.46.52-29.52-10.21-68.65-23.39-74.56-27.2-15.41-9.93-7.76-60.9-5.2-125.46C1203.89,1647,1172.73,1626.66,1143,1636.94Z" transform="translate(-225.58 -132.97)"/><path class="cls-9" d="M1153.72,1760.11c-7.69,19.43-5.9,55.13-1.87,55.74,4.82.73,190.84,4.82,199.94-1.68,14.64-10.6-10.9-24.29-47.16-37.61C1261.94,1792.54,1156.24,1773.17,1153.72,1760.11Z" transform="translate(-225.58 -132.97)"/><path class="cls-10" d="M913.06,1072.63l3.84,51.22s358.16,49.86,363.91,115.5-49,471.2-49,471.2l-81.4,4.37S1114.7,1494,1118.94,1419c3.86-68.17,19.07-105.25,19.07-105.25s-385.08-18.24-409.56-29.36-41.91-41.76-17.45-139.53S748.43,1022,748.43,1022Z" transform="translate(-225.58 -132.97)"/><path class="cls-11" d="M1142.4,528.45c8.44-35.29,16.71-70.8-5.55-109.57-18-31.37-49.16-49.42-85.2-53.36-102.13-11.14-80.3,76.51-223,95.48-44.35,5.9-85.55,11.57-122.58,31.85-66.87,36.61-69.63,141.75-47.76,191,104.64,235.82,375.11,35.4,408-10.74C1090.79,638.83,1137,551.16,1142.4,528.45Z" transform="translate(-225.58 -132.97)"/><path class="cls-6" d="M1070.82,735.46c-3.23-30.5-20.52-72.88-20.52-72.88-3.74-30.72-82.08-33.78-118-21.45-90.59,28.56-167.52,267.61-206.36,424l188.84,29.94S978.18,889,1039.65,858.69C1082.47,837.59,1075.62,780.72,1070.82,735.46Z" transform="translate(-225.58 -132.97)"/><path class="cls-3" d="M1007.62,544.25s-.41,2.1-1.13,5.69c-3.48,17.2-14.33,68.41-23.38,84.09-10.93,19,24.71,104.25,71.24,96.87,13.85-2.2-7.87-45.85-3.19-67,2.64-11.95,10.67-49.16,17.15-79.25,5-23.11,9-42,9-42Z" transform="translate(-225.58 -132.97)"/><path class="cls-5" d="M1006.49,549.94c.72-3.59,1.13-5.69,1.13-5.69l69.72-1.6s-4.06,18.91-9,42c-1.75,8.09-3.6,16.7-5.43,25.19-10.76-1.46-22-6.26-33.29-15.32a80.65,80.65,0,0,1-25.22-34.41C1005.23,556.09,1006,552.61,1006.49,549.94Z" transform="translate(-225.58 -132.97)"/><path class="cls-3" d="M1049.56,391.9a84.35,84.35,0,0,0-49,28.08c-20.59,24.44-42.8,100,8.37,141.13s101.74-5.42,109.23-54.75S1124.11,390.12,1049.56,391.9Z" transform="translate(-225.58 -132.97)"/><path class="cls-3" d="M1134.5,489.51c-6.11,10.89-16.36,16.92-22.9,13.47s-6.89-15.08-.78-26,16.36-16.92,22.9-13.47S1140.61,478.61,1134.5,489.51Z" transform="translate(-225.58 -132.97)"/><path class="cls-11" d="M1058.22,390.76s-43.91,71.89-75.31,75.21-35.54,41.52-35.54,41.52,11.23-88,42.33-105S1058.22,390.76,1058.22,390.76Z" transform="translate(-225.58 -132.97)"/><path class="cls-3" d="M993.18,483.1c2.55,12.76-2.58,24.47-11.48,26.15s-18.17-7.32-20.72-20.09,2.58-24.47,11.47-26.14S990.62,470.33,993.18,483.1Z" transform="translate(-225.58 -132.97)"/><path class="cls-3" d="M1332.46,1560.08c30.59,36.1,48.87,74.75,51.29,79.4,1.16,2.23,1.61,15.1,2.76,17.44,47.61,31.33,98,22.64,139.45,9.74-27.26-11.8-65.21-25.47-68.77-31.18-5.66-9.08-30.46-44.16-57.23-103.4C1378.63,1553.31,1361.26,1551.93,1332.46,1560.08Z" transform="translate(-225.58 -132.97)"/><path class="cls-9" d="M1384.24,1641.21c-4.16,19-11.84,58.62-2.49,65,7.3,5,168.11,18,188.57-2.48,12.31-12.34-10.92-21.83-44.36-37.08C1484.56,1679.56,1385.78,1654.09,1384.24,1641.21Z" transform="translate(-225.58 -132.97)"/><path class="cls-9" d="M1418.43,1557.47l-64.87,38.34s-171.84-268-185.8-329.35c-12.74-56-67.48-79.48-67.48-79.48L917.1,1124.12s289,6.42,328.73,30.24C1296.26,1184.62,1418.43,1557.47,1418.43,1557.47Z" transform="translate(-225.58 -132.97)"/><path class="cls-12" d="M2003.72,895.67a12.51,12.51,0,0,0-12.49-11.77h-80.84a12.5,12.5,0,0,0-12.48,11.77l-.13,2.18h106.07Z" transform="translate(-225.58 -132.97)"/><polygon class="cls-13" points="1672.2 764.88 1659.07 987.68 1791.4 987.68 1778.27 764.88 1672.2 764.88"/><path class="cls-13" d="M1957.1,847.58a3.89,3.89,0,0,0-3.86-4.37h-4.85a3.89,3.89,0,0,0-3.87,4.37l0,.21h12.53Z" transform="translate(-225.58 -132.97)"/><path class="cls-13" d="M2010.17,1053.67l-8.92-5.47c30.68-50,68.76-127,57.34-141.87-15.21-19.81-55.78,9-56.18,9.31l-6.19-8.44c2-1.46,49-35.4,70.67-7.24C2086.83,925.91,2023.14,1032.55,2010.17,1053.67Z" transform="translate(-225.58 -132.97)"/><polygon class="cls-13" points="1718.97 714.82 1721.89 738.43 1728.58 738.43 1731.5 714.82 1718.97 714.82"/><path class="cls-13" d="M1950.81,858.9c-21.14,0-38.31,11.15-38.79,25h77.58C1989.12,870.05,1972,858.9,1950.81,858.9Z" transform="translate(-225.58 -132.97)"/><polygon class="cls-13" points="1669.66 807.87 1666.24 865.89 1628.59 781.3 1648.52 781.3 1669.66 807.87"/><polygon class="cls-2" points="1995.2 1091.05 1970.95 1682.89 1991.05 1682.88 2056.77 1084.2 1995.2 1091.05"/><path class="cls-2" d="M878.74,988.17H2104.2a105.39,105.39,0,0,1,105.39,105.39V1103a0,0,0,0,1,0,0H773.34a0,0,0,0,1,0,0v-9.43A105.39,105.39,0,0,1,878.74,988.17Z"/><polygon class="cls-2" points="992.22 1086.55 1020.22 1687.19 996.33 1687.2 918.39 1079.64 992.22 1086.55"/><polygon class="cls-2" points="2091.44 1086.55 2068.09 1682.86 2093.75 1682.85 2153 1079.64 2091.44 1086.55"/><path class="cls-12" d="M2808.48,1236.26a11.64,11.64,0,1,0,7.85,14.47A11.64,11.64,0,0,0,2808.48,1236.26Z" transform="translate(-225.58 -132.97)"/><path class="cls-5" d="M2797.88,1252c-5.79-5.42-.29-15,7.29-12.72a7.53,7.53,0,1,1-7.29,12.72Z" transform="translate(-225.58 -132.97)"/><path class="cls-12" d="M2801.18,1175.75a11.64,11.64,0,1,1,4.18-15.93A11.65,11.65,0,0,1,2801.18,1175.75Z" transform="translate(-225.58 -132.97)"/><path class="cls-5" d="M2786.94,1170.9a7.53,7.53,0,1,1,13.79-1.88A7.53,7.53,0,0,1,2786.94,1170.9Z" transform="translate(-225.58 -132.97)"/><path class="cls-12" d="M2809.82,1230.54a11.64,11.64,0,1,1,13.44-9.51A11.63,11.63,0,0,1,2809.82,1230.54Z" transform="translate(-225.58 -132.97)"/><path class="cls-5" d="M2802,1217.68a7.54,7.54,0,0,1,12.56-4.23c5.51,5.15.84,14.16-6.4,12.92A7.53,7.53,0,0,1,2802,1217.68Z" transform="translate(-225.58 -132.97)"/><path class="cls-12" d="M2781.2,1278.06a11.64,11.64,0,1,1,16.42,1.35A11.64,11.64,0,0,1,2781.2,1278.06Z" transform="translate(-225.58 -132.97)"/><path class="cls-5" d="M2782.62,1273.81a7.53,7.53,0,1,1,10.62.87A7.54,7.54,0,0,1,2782.62,1273.81Z" transform="translate(-225.58 -132.97)"/><path class="cls-12" d="M2663.88,1168.26a11.65,11.65,0,1,0-2.42-16.29A11.66,11.66,0,0,0,2663.88,1168.26Z" transform="translate(-225.58 -132.97)"/><path class="cls-5" d="M2667.36,1166a7.53,7.53,0,1,1,11.2-1,7.5,7.5,0,0,1-11.2,1Z" transform="translate(-225.58 -132.97)"/><path class="cls-12" d="M2709.44,1136.59a11.64,11.64,0,1,0,8.62-14A11.65,11.65,0,0,0,2709.44,1136.59Z" transform="translate(-225.58 -132.97)"/><path class="cls-5" d="M2715.88,1141.69a7.53,7.53,0,1,1,12.48-7.24,7.53,7.53,0,0,1-12.48,7.24Z" transform="translate(-225.58 -132.97)"/><path class="cls-12" d="M2764.71,1141.61a11.65,11.65,0,1,0,15.62-5.21A11.64,11.64,0,0,0,2764.71,1141.61Z" transform="translate(-225.58 -132.97)"/><path class="cls-5" d="M2771.46,1141.62a7.53,7.53,0,1,1-1,13.88A7.51,7.51,0,0,1,2771.46,1141.62Z" transform="translate(-225.58 -132.97)"/><path class="cls-12" d="M2703.82,1138.3a11.64,11.64,0,1,1-15-6.88A11.64,11.64,0,0,1,2703.82,1138.3Z" transform="translate(-225.58 -132.97)"/><path class="cls-5" d="M2687.13,1141.27a7.53,7.53,0,1,1,9.45,10.2A7.54,7.54,0,0,1,2687.13,1141.27Z" transform="translate(-225.58 -132.97)"/><path class="cls-12" d="M2803.83,1181a11.64,11.64,0,1,0,15.32,6A11.63,11.63,0,0,0,2803.83,1181Z" transform="translate(-225.58 -132.97)"/><path class="cls-5" d="M2799.32,1195.3a7.52,7.52,0,1,1,1.76,2.5A7.53,7.53,0,0,1,2799.32,1195.3Z" transform="translate(-225.58 -132.97)"/><path class="cls-12" d="M2759.31,1139.31a11.65,11.65,0,1,1-7-14.89A11.66,11.66,0,0,1,2759.31,1139.31Z" transform="translate(-225.58 -132.97)"/><path class="cls-5" d="M2740.73,1135.12a7.53,7.53,0,1,1,4.56,9.63A7.55,7.55,0,0,1,2740.73,1135.12Z" transform="translate(-225.58 -132.97)"/><path class="cls-5" d="M2736.6,1219.17l57.7,24.48.86-2-60.13-25.5,65.21,3.71.12-2.19-62.58-3.56,59.94-18.34-.65-2.1-62.44,19.1,52.33-39-1.32-1.76-50.22,37.47,34.11-52.55-1.84-1.2-35.55,54.76,15-63.54-2.14-.5-14.35,61-7.67-62.17-2.18.27,8,64.79-29.41-58.3-2,1,28.22,55.93-45.86-42.71-1.49,1.61,102.49,95.93,1.51-1.6Z" transform="translate(-225.58 -132.97)"/><rect class="cls-5" x="2486.92" y="1313.74" width="294.2" height="9.41" transform="translate(-353.6 2208.96) rotate(-46.92)"/><path class="cls-12" d="M2829.75,949.11a19.71,19.71,0,1,0,20.54,18.83A19.72,19.72,0,0,0,2829.75,949.11Z" transform="translate(-225.58 -132.97)"/><path class="cls-5" d="M2821.46,980.14c-12.26-5.48-8.72-23.8,4.64-24.38a12.75,12.75,0,1,1-4.64,24.38Z" transform="translate(-225.58 -132.97)"/><path class="cls-12" d="M2784.7,856.3a19.71,19.71,0,1,1-2.1-27.79A19.72,19.72,0,0,1,2784.7,856.3Z" transform="translate(-225.58 -132.97)"/><path class="cls-5" d="M2759.24,856.41a12.75,12.75,0,1,1,21-10.63C2781.11,857.09,2767.76,863.73,2759.24,856.41Z" transform="translate(-225.58 -132.97)"/><path class="cls-12" d="M2828.73,939.23A19.71,19.71,0,1,1,2845,916.58,19.69,19.69,0,0,1,2828.73,939.23Z" transform="translate(-225.58 -132.97)"/><path class="cls-5" d="M2809.16,923a12.77,12.77,0,0,1,17.77-13.71c11.64,5.2,9.14,22.2-3.12,24.22A12.75,12.75,0,0,1,2809.16,923Z" transform="translate(-225.58 -132.97)"/><path class="cls-12" d="M2809.14,1031.08a19.71,19.71,0,1,1,27-6.9A19.71,19.71,0,0,1,2809.14,1031.08Z" transform="translate(-225.58 -132.97)"/><path class="cls-5" d="M2809.08,1023.49a12.75,12.75,0,1,1,17.46-4.46A12.75,12.75,0,0,1,2809.08,1023.49Z" transform="translate(-225.58 -132.97)"/><path class="cls-12" d="M2560.87,920.12A19.72,19.72,0,1,0,2548,895.39,19.73,19.73,0,0,0,2560.87,920.12Z" transform="translate(-225.58 -132.97)"/><path class="cls-5" d="M2565.18,914.57a12.75,12.75,0,1,1,17.38-7.79,12.72,12.72,0,0,1-17.38,7.79Z" transform="translate(-225.58 -132.97)"/><path class="cls-12" d="M2616.31,844.28a19.71,19.71,0,1,0,6.05-27.21A19.71,19.71,0,0,0,2616.31,844.28Z" transform="translate(-225.58 -132.97)"/><path class="cls-5" d="M2629.43,848.89a12.75,12.75,0,1,1,16-18.48c6.76,10.62-4.46,23.62-16,18.48Z" transform="translate(-225.58 -132.97)"/><path class="cls-12" d="M2707.51,821.8a19.71,19.71,0,1,0,22.13-17A19.71,19.71,0,0,0,2707.51,821.8Z" transform="translate(-225.58 -132.97)"/><path class="cls-5" d="M2718.32,818.09a12.74,12.74,0,1,1,6.08,22.74A12.69,12.69,0,0,1,2718.32,818.09Z" transform="translate(-225.58 -132.97)"/><path class="cls-12" d="M2608.26,850.11a19.71,19.71,0,1,1-27.73-2.74A19.7,19.7,0,0,1,2608.26,850.11Z" transform="translate(-225.58 -132.97)"/><path class="cls-5" d="M2583.18,864.09c1.12-11.22,15.34-15.61,22.54-6.83a12.74,12.74,0,0,1-1.78,17.93C2595.14,882.41,2582.07,875.28,2583.18,864.09Z" transform="translate(-225.58 -132.97)"/><path class="cls-12" d="M2791.8,863.18a19.71,19.71,0,1,0,27.85,1.22A19.71,19.71,0,0,0,2791.8,863.18Z" transform="translate(-225.58 -132.97)"/><path class="cls-5" d="M2792.5,888.62a12.71,12.71,0,1,1,4.18,3A12.75,12.75,0,0,1,2792.5,888.62Z" transform="translate(-225.58 -132.97)"/><path class="cls-12" d="M2697.6,821.09a19.71,19.71,0,1,1-19.48-19.93A19.71,19.71,0,0,1,2697.6,821.09Z" transform="translate(-225.58 -132.97)"/><path class="cls-5" d="M2665.57,824.65a12.75,12.75,0,1,1,12.6,12.89A12.78,12.78,0,0,1,2665.57,824.65Z" transform="translate(-225.58 -132.97)"/><path class="cls-5" d="M2705.31,961.46l105.81,7.31.26-3.71-110.27-7.62,106.38-30.06-1-3.58-102.09,28.84,85.79-62.43-2.2-3-89.37,65,62.2-91.38-3.08-2.09L2698,946.49l25.61-103-3.61-.89-26.68,107.26-11.11-110-3.7.38,10.66,105.52-46.55-95.28-3.34,1.63,48.5,99.29-79.19-77.06-2.6,2.66L2682,951l-96.92-43-1.51,3.4,216.91,97L2802,1005Z" transform="translate(-225.58 -132.97)"/><rect class="cls-5" x="2346.84" y="1169.02" width="498.13" height="15.93" transform="translate(236.7 2933.88) rotate(-65.92)"/><path class="cls-9" d="M2370.9,1599.22s206.51-153.36,234.81-219.46-30.05-58.63-30.05-58.63,83.39-118.2,61.26-157.26-68.19,10.82-68.19,10.82,38.69-159.92,5.05-168.81c-62.65-16.57-114.06,155.53-114.06,155.53s4.62-71.45-34.6-61.82c-59.13,14.51-27.85,168.34-27.85,168.34s-18.85-27.28-51.28-1.33C2287.8,1313.16,2370.9,1599.22,2370.9,1599.22Z" transform="translate(-225.58 -132.97)"/><path class="cls-11" d="M2337.24,1270.58c32.43-25.95,60-2.65,60-2.65s-31.28-153.83,27.85-168.34c39.22-9.63,34.6,61.82,34.6,61.82s51.41-172.1,114.06-155.53l-204.42,592.85C2360.22,1561.71,2282.89,1314.07,2337.24,1270.58Z" transform="translate(-225.58 -132.97)"/><path class="cls-10" d="M2371.18,1593.89s143.18,3.38,217.51-17.84c15-4.27,30.48-12.93,37.8-19.08,43.68-36.7-9.9-39.56-9.9-39.56s121.28-65.14,119.8-101-48.93-36.7-48.93-36.7,66.6-77.47,40.78-108.73c-32.88-39.8-115.53,38-115.53,38s9.26-28.83-21.75-36.24c-46.76-11.18-94.52,154.19-94.52,154.19s6.14-67.52-26-60.87C2412.81,1378.11,2371.18,1593.89,2371.18,1593.89Z" transform="translate(-225.58 -132.97)"/><path class="cls-9" d="M2362.39,1605.68s-187.83-160.37-210.75-225,32.14-54,32.14-54-80.89-126.24-57.46-162.06,64,7.84,64,7.84-18.2-139.19,14.34-145.61c60.61-12,99.09,154.9,99.09,154.9s-.06-68.26,36.67-56.72c55.38,17.39,16.29,161.86,16.29,161.86s20.45-54,49.73-27.35C2459,1307.43,2362.39,1605.68,2362.39,1605.68Z" transform="translate(-225.58 -132.97)"/><path class="cls-10" d="M2414.71,1227.42C2380.1,1208.17,2369,1242,2369,1242s26.8-99.55-28.58-116.94c-36.73-11.54-36.67,56.72-36.67,56.72s-38.48-166.86-99.09-154.9l161.12,595.9C2376.74,1588.15,2465.19,1255.49,2414.71,1227.42Z" transform="translate(-225.58 -132.97)"/><path class="cls-11" d="M2343.47,1582.65s-130.79.44-198.58-1.23c-17.34-.42-30.61-1.35-36.45-2-28.7-3.34,3-29,3-29s-59.06,6.83-68.85-8.8,11.3-26.26,11.3-26.26-40.88-20.64-37.83-34.24c5.69-25.34,53.25-6.72,53.25-6.72s-11.9-10.09-1.24-21.94c16.08-17.86,70.4,28.06,70.4,28.06s-22.82-44-10.56-55C2190.66,1369.67,2343.47,1582.65,2343.47,1582.65Z" transform="translate(-225.58 -132.97)"/><path class="cls-5" d="M2194.64,1815.82h343.1c43.74-40,70.58-95.81,69.61-156.2-.49-30.49-6.76-57.08-19.85-83.18l-442.77,5a197.17,197.17,0,0,0-18.31,86.14C2127.35,1725.09,2153.29,1777.75,2194.64,1815.82Z" transform="translate(-225.58 -132.97)"/><path class="cls-5" d="M1392.46,1015.92s31.88-.61,61.42-33.11,99.44-50,156.26-46.16,113.35,44,131.95,89.75,18.19,97,18.19,97l-464.76-1.71c-5.61,0-12.87-6.18-12.79-7.17.63-7.46,3.18-19.8,18.38-18.1C1328.65,1099.55,1392.46,1015.92,1392.46,1015.92Z" transform="translate(-225.58 -132.97)"/><path class="cls-14" d="M1664.54,1029.53s-40.93-52.87-79.43-49.72-44.79,73.44-20.58,98.61c23.65,24.58,27.69,20,27.69,20s-38.47-.3-51.14,5.34-8.67,17.88-8.67,17.88l185.38,1.3S1701,1071.15,1664.54,1029.53Z" transform="translate(-225.58 -132.97)"/><path class="cls-14" d="M1400.19,1074.12l26.42-18.85s19.35,4.14,45.93,19.42,28.27,20.46,30.32,32.53-.37,14.21-.37,14.21l-42.85-.33Z" transform="translate(-225.58 -132.97)"/><path class="cls-5" d="M1437.49,1059.63s37.73,21,50.86,30.83,6,30.89,6,30.89l-152.51-1.12c-4.29,0-62.65,19.48-62.61,15.19.08-7.51-.38-41,27-38.92,43,3.21,73.6-12,72-21.25S1414.06,1043.94,1437.49,1059.63Z" transform="translate(-225.58 -132.97)"/><path class="cls-5" d="M1678.32,1029.92s-53.49-54-92-50.82-30.59,84.32-3.19,104.63,35.46,18.08,35.46,18.08-51.08-3.27-63.75,2.37-8.8,17.62-8.8,17.62l185.45,1.41S1714.75,1071.55,1678.32,1029.92Z" transform="translate(-225.58 -132.97)"/><path class="cls-14" d="M1314.39,1093.2c30.73-15.24,78.07-77.28,78.07-77.28s8.68-.16,21.18-4.94c1.07,16.29-2.35,43.46-24.61,80.94C1389,1091.92,1346.07,1101,1314.39,1093.2Z" transform="translate(-225.58 -132.97)"/><path class="cls-5" d="M1339.67,937.13s30.28,19.76,29.58,36.41c0,0,28,13.42,30.28,19.18s12.91,38.57-19.7,96.32c0,0-67.3,15-91.79-10.48L1276.25,1044s-24.49-26.61-24.35-44.41l40.71,7.78s29.51-27.9,41.56-27.81Z" transform="translate(-225.58 -132.97)"/><path class="cls-5" d="M1753,1062.7s1.55,23.26-21.42,40.74-84.52,14.42-120.28,16.72-53.93,11.64-60.17,39.16-1,68.9,29.13,75.59.84,57.72-41.55,25.52-54.07-79.67-29.63-120.82,52.56-58.16,112-56,112.81,2.61,114.72-21.07S1753,1062.7,1753,1062.7Z" transform="translate(-225.58 -132.97)"/><path class="cls-3" d="M976,758.5c-10.07,94,10.77,226.41,10.77,226.41l193.18,63s33-13.05,43.52-8.88,33.68,10.73,30.07,16.67-23.23-5.13-28.34-3,13.64,19.35,21.5,24.12,66.07-5,74.78-4.14c4.69.46-.06,4-7.28,7.18,8.38-1.78,16.92-2.74,20-.22,6.65,5.51-34.13,17-34.13,17s53.84-10.18,29.45.88c0,0-56.7,28.45-88.69,12.74s-40.79-17.59-51.52-22.07c-3.12-1.3-242.72-12.7-259.82-28.17-40.64-36.78-58.06-196.93-60.64-289.45C906.54,759,935.26,755.17,976,758.5Z" transform="translate(-225.58 -132.97)"/><path class="cls-4" d="M998.68,719.5c-1.44-27.22-7.71-62.24-36.79-71.82-18-5.94-38.85-2.63-53.43,8.49-17.35,13.24-37.48,40.12-39.81,62.17a487.71,487.71,0,0,0,4.68,139.41c33-16.74,79.43-6.24,117.21-9.82C990.53,847.65,1000.59,755.48,998.68,719.5Z" transform="translate(-225.58 -132.97)"/></svg>